<svg width="1140" height="322" viewBox="0 0 1140 322" fill="none" xmlns="http://www.w3.org/2000/svg">
<path d="M1138.29 119C1114.06 119 1089.78 119.054 1065.47 119.161C1041.2 119.253 1016.93 119.392 992.656 119.622C968.384 119.852 944.234 120.129 920.084 120.589C907.887 120.82 895.811 121.096 883.736 121.464C877.719 121.649 871.743 121.879 865.807 122.155C862.758 122.294 859.83 122.455 856.781 122.639C853.749 122.828 850.81 123.067 847.999 123.353C846.45 123.5 845.013 123.686 843.73 123.906C842.111 124.157 840.922 124.494 840.315 124.873C840.193 124.988 840.193 125.104 840.071 125.219C840.172 125.302 840.213 125.387 840.193 125.472C840.194 125.643 840.317 125.814 840.559 125.979C840.966 126.299 841.581 126.608 842.389 126.9C843.958 127.461 845.974 127.974 848.365 128.42C850.593 128.841 853 129.226 855.561 129.572C860.555 130.266 865.814 130.89 871.296 131.437C876.662 131.99 882.151 132.52 887.761 133.004C909.716 134.961 932.403 136.643 953.625 138.762C958.87 139.291 964.115 139.844 969.116 140.443C974.104 141.027 978.763 141.706 983.02 142.47C987.167 143.207 990.704 144.059 992.412 145.003C993.27 145.469 993.643 145.962 993.51 146.454C993.388 146.57 993.388 146.685 993.266 146.8L992.9 147.076C992.491 147.268 991.867 147.441 991.07 147.583C989.264 147.941 987.111 148.23 984.728 148.435C982.157 148.661 979.508 148.853 976.8 149.011C971.119 149.335 965.334 149.589 959.48 149.771C947.771 150.14 935.818 150.37 923.743 150.531C899.715 150.854 875.442 150.946 851.292 150.969C827.142 150.992 802.87 150.992 778.598 150.946C730.176 150.877 681.632 150.784 632.966 150.9C608.694 150.992 584.422 151.107 560.15 151.383C535.878 151.66 511.484 152.051 487.334 152.811C475.133 153.175 463.072 153.691 451.23 154.354C445.188 154.69 439.278 155.106 433.545 155.598C427.586 156.087 421.973 156.713 416.835 157.464C411.712 158.247 406.833 159.283 404.394 160.573C403.096 161.222 402.395 161.907 402.32 162.6C402.307 163.233 402.593 163.865 403.174 164.489C404.307 165.731 406.621 166.925 410.004 168.013C413.351 169.08 417.454 170.057 422.201 170.915C431.471 172.619 442.205 173.886 453.182 175.014C464.089 176.093 475.33 177.047 486.846 177.87C509.776 179.552 533.072 180.888 556.369 182.223C579.665 183.559 602.839 184.849 625.526 186.323C636.869 187.06 648.09 187.843 659.068 188.742C669.955 189.61 680.475 190.634 690.536 191.805C700.293 192.979 709.441 194.361 716.15 196.02C722.966 197.62 726.707 199.609 726.761 201.663C726.847 203.786 724.561 205.89 720.053 207.835C715.374 209.812 709.031 211.632 701.269 213.225C693.388 214.849 684.642 216.316 675.168 217.601C670.533 218.269 665.532 218.891 660.531 219.49C655.53 220.088 650.408 220.641 645.285 221.194C634.795 222.276 624.062 223.267 613.207 224.165C602.351 225.063 591.13 225.916 579.787 226.699C557.344 228.265 534.292 229.578 510.996 230.775C487.699 231.973 464.281 232.986 440.619 233.908C393.417 235.773 345.604 237.201 297.67 238.376C249.736 239.551 201.68 240.472 153.379 241.209C129.311 241.562 105.201 241.862 81.051 242.107C56.9009 242.361 32.629 242.568 8.72278 242.683H8.60071C6.27161 242.692 4.05725 242.876 2.4447 243.193C0.832031 243.511 -0.0465088 243.936 0.00195312 244.376C0.0505371 244.816 1.02209 245.234 2.70337 245.538C4.38464 245.843 6.6377 246.009 8.9668 246H9.08862C33.4827 245.861 57.7954 245.639 82.0269 245.332C106.258 245.025 130.53 244.694 154.843 244.341C203.265 243.558 251.565 242.591 299.865 241.347C348.166 240.103 396.1 238.606 443.79 236.672C467.574 235.704 491.359 234.645 514.899 233.401C538.439 232.157 561.735 230.798 584.666 229.186C596.131 228.38 607.596 227.505 618.817 226.56C630.039 225.616 641.016 224.58 651.871 223.451C657.238 222.875 662.605 222.276 667.849 221.655C673.094 221.033 678.217 220.365 683.218 219.651C693.346 218.241 702.703 216.644 711.149 214.883C719.773 213.079 726.814 211.026 732.006 208.803C737.071 206.528 739.643 204.084 739.568 201.617C739.51 200.335 738.272 199.064 735.909 197.862C733.559 196.677 730.269 195.567 726.151 194.569C717.979 192.588 707.734 191.091 697.122 189.824C686.47 188.605 675.338 187.543 663.824 186.646C652.481 185.724 641.016 184.918 629.429 184.181C606.254 182.707 582.836 181.44 559.662 180.151C536.488 178.861 513.313 177.525 490.871 175.913C479.73 175.134 468.855 174.226 458.305 173.195C447.815 172.135 437.936 170.938 429.642 169.464C425.582 168.734 422.054 167.905 419.152 166.999C416.336 166.121 414.394 165.153 413.42 164.143C413.035 163.64 412.831 163.132 412.81 162.623C412.847 162.161 413.259 161.703 414.029 161.264C416 160.363 419.199 159.576 423.299 158.984C427.744 158.317 432.622 157.76 437.814 157.326C443.134 156.88 448.592 156.496 454.158 156.174C465.556 155.524 477.168 155.016 488.919 154.654C512.714 153.923 536.693 153.423 560.76 153.157C584.788 152.88 608.938 152.719 633.21 152.627C681.632 152.42 730.054 152.489 778.598 152.512C802.87 152.512 827.142 152.512 851.414 152.443C875.686 152.374 899.958 152.259 924.231 151.913C936.456 151.771 948.631 151.502 960.7 151.107C966.851 150.91 972.923 150.633 978.873 150.278C981.98 150.105 985 149.882 987.899 149.61C991.012 149.335 993.825 148.952 996.193 148.481C997.591 148.221 998.673 147.907 999.364 147.56C999.723 147.382 999.968 147.196 1000.1 147.007C1000.24 146.847 1000.32 146.686 1000.34 146.523C1000.53 145.859 1000.03 145.194 998.876 144.566C996.482 143.404 992.632 142.368 987.655 141.549C983.012 140.742 977.991 140.018 972.653 139.384C967.53 138.762 962.041 138.186 956.675 137.656C934.842 135.537 912.155 133.879 890.323 131.967C884.794 131.476 879.427 130.969 874.223 130.447C868.969 129.932 863.915 129.347 859.098 128.697C856.773 128.373 854.572 128.019 852.512 127.637C850.528 127.28 848.842 126.869 847.511 126.416C846.904 126.198 846.453 125.966 846.17 125.725C846.029 125.612 845.947 125.496 845.926 125.38V125.127C846.249 124.958 846.795 124.807 847.511 124.689C848.507 124.535 849.568 124.396 850.682 124.274C853.205 124.016 855.862 123.808 858.611 123.653C861.416 123.468 864.221 123.307 867.148 123.169C872.84 122.892 878.695 122.662 884.712 122.478C896.543 122.086 908.496 121.787 920.571 121.557C944.6 121.05 968.75 120.75 992.9 120.497C1017.05 120.244 1041.32 120.059 1065.59 119.921C1089.87 119.783 1114.02 119.714 1138.29 119.668C1138.74 119.668 1139.18 119.634 1139.5 119.573C1139.82 119.513 1140 119.431 1140 119.345C1140.01 119.301 1139.98 119.257 1139.9 119.215C1139.82 119.173 1139.7 119.135 1139.54 119.102C1139.38 119.07 1139.19 119.044 1138.97 119.027C1138.76 119.009 1138.52 119 1138.29 119Z" fill="#4C6FFF"/>
<path d="M625.526 186.323C602.839 184.849 579.665 183.559 556.369 182.223C545.752 181.615 535.135 181.006 524.553 180.364L526.1 179.297L527.647 178.229L559.662 180.151C582.836 181.44 606.254 182.707 629.429 184.181C641.016 184.918 652.481 185.724 663.824 186.646C675.338 187.543 686.47 188.605 697.122 189.824C707.734 191.091 717.979 192.588 726.151 194.569C730.269 195.567 733.559 196.677 735.909 197.862C738.272 199.064 739.51 200.335 739.568 201.617C739.643 204.084 737.071 206.528 732.006 208.803C726.814 211.026 719.773 213.079 711.149 214.883C702.703 216.644 693.346 218.241 683.217 219.651C678.217 220.365 673.094 221.033 667.849 221.655C662.605 222.276 657.238 222.875 651.871 223.451C641.016 224.58 630.039 225.616 618.817 226.56C607.596 227.505 596.131 228.38 584.666 229.186C561.735 230.798 538.439 232.157 514.899 233.401C491.359 234.645 467.574 235.704 443.79 236.672C396.1 238.606 348.166 240.103 299.865 241.347C251.565 242.591 203.265 243.558 154.843 244.341C130.53 244.694 106.258 245.025 82.0267 245.332C57.7954 245.639 33.4825 245.861 9.0885 246H8.96667C6.63757 246.009 4.38452 245.843 2.70325 245.538C1.02197 245.234 0.050415 244.816 0.00183105 244.376C-0.0466309 243.936 0.831909 243.511 2.44446 243.193C4.05713 242.876 6.27148 242.692 8.60059 242.683H8.72278C32.6289 242.568 56.9009 242.361 81.0509 242.107C105.201 241.862 129.311 241.562 153.379 241.209C201.679 240.472 249.736 239.551 297.67 238.376C345.604 237.201 393.417 235.773 440.619 233.908C464.281 232.986 487.699 231.973 510.996 230.775C534.292 229.578 557.344 228.265 579.787 226.699C591.13 225.916 602.351 225.063 613.207 224.165C624.062 223.267 634.795 222.276 645.285 221.194L645.285 221.194C650.408 220.641 655.53 220.088 660.531 219.49C665.532 218.891 670.533 218.269 675.168 217.601C684.642 216.316 693.388 214.849 701.269 213.225C709.031 211.632 715.374 209.812 720.053 207.835C724.561 205.89 726.847 203.786 726.761 201.663C726.707 199.609 722.966 197.62 716.149 196.02C709.441 194.361 700.293 192.979 690.536 191.805C680.475 190.634 669.955 189.61 659.067 188.742C648.09 187.843 636.869 187.06 625.526 186.323Z" fill="#F480A5"/>
<path opacity="0.5" d="M270.293 231.797C270.906 231.783 271.489 231.53 271.918 231.091C272.346 230.653 272.586 230.064 272.586 229.451V228.331C272.586 227.723 272.344 227.14 271.914 226.71C271.484 226.28 270.901 226.039 270.293 226.039C269.685 226.039 269.102 226.28 268.672 226.71C268.242 227.14 268 227.723 268 228.331V229.451C268 230.064 268.24 230.653 268.669 231.091C269.097 231.53 269.68 231.783 270.293 231.797ZM270.293 219.054C270.906 219.04 271.489 218.787 271.918 218.348C272.346 217.91 272.586 217.321 272.586 216.708V215.535C272.586 214.927 272.344 214.343 271.914 213.913C271.484 213.483 270.901 213.242 270.293 213.242C269.685 213.242 269.102 213.483 268.672 213.913C268.242 214.343 268 214.927 268 215.535V216.708C268 217.321 268.24 217.91 268.669 218.348C269.097 218.787 269.68 219.04 270.293 219.054ZM270.293 206.31C270.906 206.296 271.489 206.043 271.918 205.605C272.346 205.166 272.586 204.577 272.586 203.964V202.791C272.586 202.183 272.344 201.6 271.914 201.17C271.484 200.74 270.901 200.499 270.293 200.499C269.685 200.499 269.102 200.74 268.672 201.17C268.242 201.6 268 202.183 268 202.791V203.964C268 204.577 268.24 205.166 268.669 205.605C269.097 206.043 269.68 206.296 270.293 206.31ZM270.293 193.514C270.901 193.514 271.484 193.272 271.914 192.842C272.344 192.412 272.586 191.829 272.586 191.221V190.048C272.586 189.44 272.344 188.857 271.914 188.427C271.484 187.997 270.901 187.755 270.293 187.755C269.685 187.755 269.102 187.997 268.672 188.427C268.242 188.857 268 189.44 268 190.048V191.221C268 191.829 268.242 192.412 268.672 192.842C269.102 193.272 269.685 193.514 270.293 193.514ZM270.293 180.77C270.901 180.77 271.484 180.529 271.914 180.099C272.344 179.669 272.586 179.086 272.586 178.477V177.304C272.586 176.696 272.344 176.113 271.914 175.683C271.484 175.253 270.901 175.012 270.293 175.012C269.685 175.012 269.102 175.253 268.672 175.683C268.242 176.113 268 176.696 268 177.304V178.477C268 179.086 268.242 179.669 268.672 180.099C269.102 180.529 269.685 180.77 270.293 180.77Z" fill="#F480A5"/>
<path opacity="0.5" d="M270.5 317C271.168 316.986 271.804 316.732 272.271 316.292C272.739 315.851 273 315.26 273 314.645V313.521C273 312.911 272.737 312.325 272.268 311.894C271.799 311.462 271.163 311.22 270.5 311.22C269.837 311.22 269.201 311.462 268.732 311.894C268.263 312.325 268 312.911 268 313.521V314.645C268 315.26 268.261 315.851 268.729 316.292C269.196 316.732 269.832 316.986 270.5 317ZM270.5 304.208C271.168 304.194 271.804 303.94 272.271 303.5C272.739 303.06 273 302.469 273 301.854V300.676C273 300.066 272.737 299.48 272.268 299.049C271.799 298.617 271.163 298.375 270.5 298.375C269.837 298.375 269.201 298.617 268.732 299.049C268.263 299.48 268 300.066 268 300.676V301.854C268 302.469 268.261 303.06 268.729 303.5C269.196 303.94 269.832 304.194 270.5 304.208ZM270.5 291.417C271.168 291.403 271.804 291.149 272.271 290.709C272.739 290.268 273 289.677 273 289.062V287.884C273 287.274 272.737 286.689 272.268 286.257C271.799 285.826 271.163 285.583 270.5 285.583C269.837 285.583 269.201 285.826 268.732 286.257C268.263 286.689 268 287.274 268 287.884V289.062C268 289.677 268.261 290.268 268.729 290.709C269.196 291.149 269.832 291.403 270.5 291.417ZM270.5 278.572C271.163 278.572 271.799 278.329 272.268 277.898C272.737 277.466 273 276.881 273 276.27V275.093C273 274.483 272.737 273.897 272.268 273.466C271.799 273.034 271.163 272.792 270.5 272.792C269.837 272.792 269.201 273.034 268.732 273.466C268.263 273.897 268 274.483 268 275.093V276.27C268 276.881 268.263 277.466 268.732 277.898C269.201 278.329 269.837 278.572 270.5 278.572ZM270.5 265.78C271.163 265.78 271.799 265.538 272.268 265.106C272.737 264.675 273 264.089 273 263.479V262.301C273 261.691 272.737 261.106 272.268 260.674C271.799 260.242 271.163 260 270.5 260C269.837 260 269.201 260.242 268.732 260.674C268.263 261.106 268 261.691 268 262.301V263.479C268 264.089 268.263 264.675 268.732 265.106C269.201 265.538 269.837 265.78 270.5 265.78Z" fill="#F480A5"/>
<path d="M319.67 130.489H270.616V165.68L319.67 130.489Z" fill="#F480A5"/>
<path d="M201.762 79.3562C201.762 40.7504 233.058 9.4541 271.664 9.4541C310.27 9.4541 341.566 40.7504 341.566 79.3562C341.566 117.962 310.27 149.258 271.664 149.258C233.058 149.258 201.762 117.962 201.762 79.3562Z" fill="#F480A5"/>
<g filter="url(#filter0_d)">
<path d="M264.731 252.188C261.566 249.023 261.566 243.891 264.731 240.726C267.896 237.561 273.028 237.561 276.193 240.726C279.358 243.891 279.358 249.023 276.193 252.188C273.028 255.353 267.896 255.353 264.731 252.188Z" fill="#F480A5"/>
<path d="M265.197 241.191C262.289 244.1 262.289 248.815 265.197 251.723C268.105 254.631 272.82 254.631 275.728 251.723C278.636 248.815 278.636 244.1 275.728 241.191C272.82 238.283 268.105 238.283 265.197 241.191Z" stroke="white" stroke-width="1.31593"/>
</g>
<path d="M310.972 118.343C332.69 96.6245 332.69 61.4126 310.972 39.6946C289.254 17.9766 254.042 17.9766 232.324 39.6946C210.606 61.4127 210.606 96.6245 232.324 118.342C254.042 140.06 289.254 140.061 310.972 118.343Z" fill="url(#paint0_linear)"/>
<g clip-path="url(#clip0)">
<path d="M299.759 72.9588L289.095 54.7874C288.606 53.9543 287.537 53.6717 286.7 54.1548L280.309 57.8447L274.552 55.7272C272.752 55.065 270.766 55.2352 269.105 56.1945L260.363 61.2417L252.613 56.7671C252.201 56.5292 251.71 56.4686 251.253 56.5988C250.795 56.7291 250.41 57.0392 250.185 57.4586L240.21 76.0564C239.761 76.893 240.058 77.9349 240.88 78.4095L244.838 80.6949L242.853 84.1331C241.399 86.6513 242.265 89.8828 244.784 91.3367C245.952 92.0115 247.275 92.1859 248.502 91.9279C248.892 93.1195 249.704 94.1776 250.873 94.8524C252.042 95.5271 253.364 95.7015 254.591 95.4436C254.981 96.6351 255.793 97.6932 256.962 98.368C258.131 99.0427 259.453 99.2171 260.68 98.9592C261.07 100.151 261.882 101.209 263.051 101.884C265.569 103.338 268.801 102.472 270.255 99.9534L270.482 99.56L277.079 103.369C279.597 104.823 282.828 103.957 284.282 101.438C284.625 100.844 284.838 100.21 284.931 99.5688C287.174 100.16 289.628 99.2102 290.842 97.107C291.26 96.3828 291.486 95.5995 291.536 94.8166C293.455 94.9173 295.363 93.9647 296.388 92.1896C297.412 90.4146 297.283 88.2859 296.237 86.6744C296.89 86.2394 297.455 85.6527 297.874 84.9284C299.287 82.4798 298.507 79.3574 296.148 77.8499L299.36 75.2055C300.027 74.6564 300.196 73.7039 299.759 72.9588ZM270.863 59.2392C271.618 58.803 272.52 58.7258 273.339 59.0268L279.868 61.4285C280.358 61.6086 280.902 61.5618 281.354 61.301L286.947 58.0721L295.968 73.4447L292.902 75.9688L271.789 63.7789C271.245 63.4649 270.575 63.4649 270.031 63.7789L260.314 69.3891C259.505 69.8784 258.368 69.5738 257.912 68.7458C257.423 67.9373 257.728 66.8 258.556 66.3446L270.863 59.2392ZM246.541 88.2921C245.702 87.8074 245.413 86.7303 245.898 85.8909L248.828 80.8166C249.312 79.9772 250.39 79.6885 251.229 80.1732C252.068 80.6579 252.357 81.735 251.872 82.5744L248.943 87.6487C248.458 88.4881 247.381 88.7768 246.541 88.2921ZM252.631 91.8077C251.791 91.323 251.503 90.2459 251.987 89.4065L256.089 82.3024C256.574 81.4629 257.651 81.1743 258.49 81.659C259.329 82.1437 259.618 83.2208 259.133 84.0602L255.032 91.1643C254.547 92.0038 253.47 92.2924 252.631 91.8077ZM258.72 95.3233C257.88 94.8386 257.592 93.7616 258.076 92.9222L261.006 87.8478C261.491 87.0084 262.568 86.7198 263.407 87.2045C264.247 87.6891 264.535 88.7662 264.051 89.6056L261.121 94.68C260.636 95.5194 259.559 95.808 258.72 95.3233ZM264.809 98.8391C263.97 98.3544 263.681 97.2772 264.166 96.4378L265.923 93.3931C266.408 92.5537 267.485 92.2651 268.325 92.7498C269.164 93.2345 269.453 94.3115 268.968 95.1509L267.21 98.1956C266.726 99.0351 265.649 99.3238 264.809 98.8391ZM293.343 90.4318C292.859 91.2712 291.782 91.5599 290.942 91.0752L281.808 85.8017C280.968 85.3163 279.893 85.6044 279.407 86.4451C278.922 87.2858 279.21 88.3609 280.051 88.8463L287.155 92.9478C287.994 93.4325 288.283 94.5096 287.798 95.349C287.313 96.1884 286.236 96.477 285.397 95.9924L278.293 91.8908C277.452 91.4054 276.377 91.6934 275.892 92.5341C275.406 93.3749 275.694 94.4499 276.535 94.9353L280.594 97.2791C281.434 97.7638 281.722 98.8408 281.238 99.6802C280.753 100.52 279.676 100.808 278.837 100.324L272.222 96.5046C273.369 94.0543 272.468 91.0822 270.083 89.7049C269.358 89.2868 268.575 89.0614 267.792 89.0111C267.893 87.0923 266.94 85.1843 265.165 84.1593C264.441 83.7412 263.658 83.516 262.875 83.4657C262.975 81.5469 262.023 79.6388 260.248 78.614C258.473 77.5892 256.344 77.7183 254.733 78.7649C254.298 78.1119 253.711 77.5462 252.987 77.1281C250.96 75.9579 248.472 76.2915 246.82 77.7788L244.113 76.2168L252.426 60.7187L256.847 63.2715L256.798 63.3001C255.578 64.0044 254.706 65.1416 254.341 66.5021C253.976 67.8627 254.163 69.2838 254.868 70.5036C255.572 71.7234 256.709 72.596 258.07 72.9607C259.43 73.325 260.851 73.1381 262.071 72.4338L270.91 67.331L294.186 80.7696C295.025 81.2543 295.314 82.3313 294.829 83.1707C294.344 84.0102 293.267 84.2988 292.428 83.8141L285.324 79.7125C284.483 79.2272 283.408 79.5152 282.923 80.3559C282.437 81.1966 282.725 82.2717 283.566 82.7571L292.7 88.0305C293.539 88.5152 293.828 89.5924 293.343 90.4318Z" fill="#BA4067"/>
</g>
<path d="M271.63 135.555C240.438 135.555 215.058 110.175 215.058 79.0361C215.072 64.0365 221.037 49.6554 231.643 39.0491C242.249 28.4428 256.63 22.478 271.63 22.4639C302.769 22.4639 328.149 47.844 328.149 79.0361C328.12 94.0172 322.157 108.377 311.564 118.97C300.97 129.563 286.611 135.527 271.63 135.555ZM271.63 24.2767C260.797 24.2662 250.205 27.4688 241.193 33.4794C232.181 39.49 225.154 48.0386 221.001 58.0436C216.848 68.0486 215.756 79.0606 217.863 89.6864C219.97 100.312 225.181 110.074 232.837 117.738C240.493 125.401 250.25 130.622 260.874 132.739C271.498 134.857 282.511 133.775 292.52 129.632C302.529 125.489 311.084 118.471 317.104 109.464C323.123 100.458 326.336 89.8687 326.336 79.0361C326.308 64.5309 320.537 50.627 310.285 40.3653C300.033 30.1035 286.135 24.319 271.63 24.2767Z" fill="url(#paint1_linear)"/>
<path d="M404.481 224.753C404.918 224.743 405.333 224.563 405.638 224.251C405.943 223.938 406.113 223.519 406.113 223.083V222.286C406.113 221.853 405.941 221.438 405.635 221.132C405.329 220.826 404.914 220.654 404.481 220.654C404.048 220.654 403.633 220.826 403.327 221.132C403.021 221.438 402.849 221.853 402.849 222.286V223.083C402.849 223.519 403.02 223.938 403.325 224.251C403.63 224.563 404.045 224.743 404.481 224.753ZM404.481 215.682C404.918 215.672 405.333 215.491 405.638 215.179C405.943 214.867 406.113 214.448 406.113 214.011V213.176C406.113 212.744 405.941 212.328 405.635 212.022C405.329 211.716 404.914 211.544 404.481 211.544C404.048 211.544 403.633 211.716 403.327 212.022C403.021 212.328 402.849 212.744 402.849 213.176V214.011C402.849 214.448 403.02 214.867 403.325 215.179C403.63 215.491 404.045 215.672 404.481 215.682ZM404.481 206.61C404.918 206.6 405.333 206.42 405.638 206.108C405.943 205.796 406.113 205.376 406.113 204.94V204.105C406.113 203.672 405.941 203.257 405.635 202.951C405.329 202.645 404.914 202.473 404.481 202.473C404.048 202.473 403.633 202.645 403.327 202.951C403.021 203.257 402.849 203.672 402.849 204.105V204.94C402.849 205.376 403.02 205.796 403.325 206.108C403.63 206.42 404.045 206.6 404.481 206.61ZM404.481 197.501C404.914 197.501 405.329 197.329 405.635 197.023C405.941 196.717 406.113 196.301 406.113 195.869V195.034C406.113 194.601 405.941 194.186 405.635 193.88C405.329 193.573 404.914 193.402 404.481 193.402C404.048 193.402 403.633 193.573 403.327 193.88C403.021 194.186 402.849 194.601 402.849 195.034V195.869C402.849 196.301 403.021 196.717 403.327 197.023C403.633 197.329 404.048 197.501 404.481 197.501ZM404.481 188.429C404.914 188.429 405.329 188.257 405.635 187.951C405.941 187.645 406.113 187.23 406.113 186.797V185.962C406.113 185.529 405.941 185.114 405.635 184.808C405.329 184.502 404.914 184.33 404.481 184.33C404.048 184.33 403.633 184.502 403.327 184.808C403.021 185.114 402.849 185.529 402.849 185.962V186.797C402.849 187.23 403.021 187.645 403.327 187.951C403.633 188.257 404.048 188.429 404.481 188.429Z" fill="#F480A5" fill-opacity="0.5"/>
<path d="M440.171 152.637H405.252V177.688L440.171 152.637Z" fill="url(#paint2_linear)"/>
<path d="M440.171 152.637H405.252V177.688L440.171 152.637Z" fill="#F480A5"/>
<path d="M356.239 116.238C356.239 88.7559 378.517 66.4775 405.999 66.4775C433.48 66.4775 455.759 88.7559 455.759 116.238C455.759 143.719 433.48 165.998 405.999 165.998C378.517 165.998 356.239 143.719 356.239 116.238Z" fill="#F480A5"/>
<g filter="url(#filter1_d)">
<path d="M400.437 238.785C398.184 236.532 398.184 232.879 400.437 230.626C402.69 228.373 406.343 228.373 408.596 230.626C410.849 232.879 410.849 236.532 408.596 238.785C406.343 241.038 402.69 241.038 400.437 238.785Z" fill="#F480A5"/>
<path d="M400.903 231.091C398.906 233.087 398.906 236.323 400.903 238.319C402.899 240.315 406.135 240.315 408.131 238.319C410.127 236.323 410.127 233.087 408.131 231.091C406.135 229.095 402.899 229.095 400.903 231.091Z" stroke="white" stroke-width="1.31593"/>
</g>
<path d="M433.979 143.99C449.439 128.53 449.439 103.464 433.979 88.0042C418.519 72.5442 393.453 72.5442 377.993 88.0042C362.533 103.464 362.533 128.53 377.993 143.99C393.453 159.45 418.518 159.45 433.979 143.99Z" fill="url(#paint3_linear)"/>
<g clip-path="url(#clip1)">
<path d="M417.347 132.262H396.722C396.011 132.262 395.433 131.683 395.433 130.973C395.433 130.262 396.011 129.684 396.722 129.684H420.553L426.456 109.059H421.472V103.902H413.479V95.9961H395.433V109.059H393.288L392.742 106.843L392.741 106.843C392.325 105.157 390.8 103.902 388.987 103.902H386.323C384.191 103.902 382.456 105.637 382.456 107.77H385.034C385.034 107.059 385.612 106.48 386.323 106.48H388.987C389.698 106.48 390.276 107.059 390.276 107.77H390.316L395.158 127.437C393.803 128.039 392.854 129.397 392.854 130.973C392.854 133.105 394.589 134.84 396.722 134.84H398.232C398.089 135.243 398.011 135.677 398.011 136.129C398.011 138.261 399.746 139.996 401.878 139.996C404.01 139.996 405.745 138.261 405.745 136.129C405.745 135.677 405.666 135.243 405.523 134.84H413.701C413.558 135.243 413.48 135.677 413.48 136.129C413.48 138.261 415.214 139.996 417.347 139.996C419.479 139.996 421.214 138.261 421.214 136.129C421.214 133.997 419.479 132.262 417.347 132.262ZM418.937 106.48V109.059H413.479V106.48H418.937ZM398.011 98.5742H410.901V109.059H398.011V98.5742ZM423.038 111.637L418.609 127.105H397.732L393.923 111.637H423.038ZM403.167 136.129C403.167 136.84 402.589 137.418 401.878 137.418C401.167 137.418 400.589 136.84 400.589 136.129C400.589 135.418 401.167 134.84 401.878 134.84C402.589 134.84 403.167 135.418 403.167 136.129ZM417.347 137.418C416.636 137.418 416.058 136.84 416.058 136.129C416.058 135.418 416.636 134.84 417.347 134.84C418.057 134.84 418.636 135.418 418.636 136.129C418.636 136.84 418.057 137.418 417.347 137.418Z" fill="#BA4067"/>
<path d="M405.745 101.324V102.613C405.745 103.324 405.167 103.902 404.456 103.902C403.745 103.902 403.167 103.324 403.167 102.613V101.324H400.589V102.613C400.589 104.746 402.324 106.48 404.456 106.48C406.588 106.48 408.323 104.746 408.323 102.613V101.324H405.745Z" fill="#BA4067"/>
</g>
<path d="M405.974 156.241C383.77 156.241 365.703 138.175 365.703 116.008C365.713 105.331 369.959 95.0936 377.509 87.5435C385.059 79.9934 395.297 75.7474 405.974 75.7373C428.14 75.7373 446.207 93.8043 446.207 116.008C446.187 126.673 441.942 136.895 434.401 144.435C426.86 151.976 416.638 156.221 405.974 156.241ZM405.974 77.0278C398.263 77.0203 390.723 79.3001 384.307 83.5788C377.892 87.8574 372.89 93.9427 369.934 101.065C366.978 108.187 366.2 116.026 367.7 123.59C369.2 131.154 372.909 138.103 378.359 143.558C383.809 149.014 390.755 152.73 398.318 154.237C405.88 155.744 413.72 154.975 420.845 152.025C427.97 149.076 434.06 144.08 438.345 137.669C442.63 131.258 444.917 123.72 444.917 116.008C444.897 105.683 440.789 95.7853 433.491 88.4805C426.193 81.1756 416.3 77.0579 405.974 77.0278Z" fill="url(#paint4_linear)"/>
<path d="M539.883 170.675C540.227 170.667 540.553 170.525 540.794 170.279C541.034 170.034 541.168 169.704 541.168 169.36V168.733C541.168 168.392 541.033 168.065 540.792 167.824C540.551 167.583 540.224 167.448 539.883 167.448C539.543 167.448 539.216 167.583 538.975 167.824C538.734 168.065 538.599 168.392 538.599 168.733V169.36C538.599 169.704 538.733 170.034 538.973 170.279C539.213 170.525 539.54 170.667 539.883 170.675ZM539.883 163.534C540.227 163.526 540.553 163.384 540.794 163.139C541.034 162.893 541.168 162.563 541.168 162.22V161.562C541.168 161.222 541.033 160.895 540.792 160.654C540.551 160.413 540.224 160.278 539.883 160.278C539.543 160.278 539.216 160.413 538.975 160.654C538.734 160.895 538.599 161.222 538.599 161.562V162.22C538.599 162.563 538.733 162.893 538.973 163.139C539.213 163.384 539.54 163.526 539.883 163.534ZM539.883 156.394C540.227 156.386 540.553 156.244 540.794 155.998C541.034 155.753 541.168 155.423 541.168 155.079V154.422C541.168 154.081 541.033 153.754 540.792 153.514C540.551 153.273 540.224 153.137 539.883 153.137C539.543 153.137 539.216 153.273 538.975 153.514C538.734 153.754 538.599 154.081 538.599 154.422V155.079C538.599 155.423 538.733 155.753 538.973 155.998C539.213 156.244 539.54 156.386 539.883 156.394ZM539.883 149.224C540.224 149.224 540.551 149.088 540.792 148.847C541.033 148.606 541.168 148.28 541.168 147.939V147.282C541.168 146.941 541.033 146.614 540.792 146.373C540.551 146.132 540.224 145.997 539.883 145.997C539.543 145.997 539.216 146.132 538.975 146.373C538.734 146.614 538.599 146.941 538.599 147.282V147.939C538.599 148.28 538.734 148.606 538.975 148.847C539.216 149.088 539.543 149.224 539.883 149.224ZM539.883 142.083C540.224 142.083 540.551 141.948 540.792 141.707C541.033 141.466 541.168 141.139 541.168 140.798V140.141C541.168 139.8 541.033 139.474 540.792 139.233C540.551 138.992 540.224 138.856 539.883 138.856C539.543 138.856 539.216 138.992 538.975 139.233C538.734 139.474 538.599 139.8 538.599 140.141V140.798C538.599 141.139 538.734 141.466 538.975 141.707C539.216 141.948 539.543 142.083 539.883 142.083Z" fill="#F480A5" fill-opacity="0.5"/>
<path d="M567.975 113.91H540.489V133.628L567.975 113.91Z" fill="url(#paint5_linear)"/>
<path d="M567.975 113.91H540.489V133.628L567.975 113.91Z" fill="#F480A5"/>
<path d="M501.91 85.2586C501.91 63.6268 519.446 46.0908 541.077 46.0908C562.709 46.0908 580.245 63.6268 580.245 85.2586C580.245 106.89 562.709 124.426 541.077 124.426C519.446 124.426 501.91 106.89 501.91 85.2586Z" fill="url(#paint6_linear)"/>
<path d="M501.91 85.2586C501.91 63.6268 519.446 46.0908 541.077 46.0908C562.709 46.0908 580.245 63.6268 580.245 85.2586C580.245 106.89 562.709 124.426 541.077 124.426C519.446 124.426 501.91 106.89 501.91 85.2586Z" fill="#F480A5"/>
<g filter="url(#filter2_d)">
<path d="M536.701 181.72C534.927 179.946 534.927 177.071 536.701 175.298C538.474 173.524 541.349 173.524 543.123 175.298C544.896 177.071 544.896 179.946 543.123 181.72C541.349 183.493 538.474 183.493 536.701 181.72Z" fill="#F480A5"/>
<path d="M537.166 175.763C535.649 177.279 535.649 179.738 537.166 181.255C538.682 182.771 541.141 182.771 542.658 181.255C544.174 179.738 544.174 177.279 542.658 175.763C541.141 174.246 538.682 174.246 537.166 175.763Z" stroke="white" stroke-width="1.31593"/>
</g>
<path d="M563.102 107.102C575.271 94.9334 575.271 75.2034 563.102 63.0343C550.933 50.8652 531.203 50.8652 519.034 63.0343C506.865 75.2034 506.865 94.9334 519.034 107.102C531.203 119.272 550.933 119.272 563.102 107.102Z" fill="url(#paint7_linear)"/>
<g clip-path="url(#clip2)">
<path d="M557.938 95.8157V79.6261L559.519 79.0354C559.977 78.8642 560.281 78.4266 560.281 77.9375C560.281 77.4484 559.977 77.0108 559.519 76.8397L540.691 69.8084C540.427 69.7097 540.136 69.7097 539.871 69.8084L521.043 76.8397C520.585 77.0108 520.281 77.4484 520.281 77.9375C520.281 78.4266 520.585 78.8642 521.043 79.0353L528.845 81.949C526.998 87.1608 527.464 89.9023 527.391 90.8281C527.391 91.217 527.584 91.5805 527.905 91.7985C528.227 92.0166 528.637 92.0605 528.998 91.9162C529.025 91.9053 531.749 90.8281 534.422 90.8281C536.895 90.8281 539.524 92.8954 539.549 92.9151C539.977 93.2574 540.585 93.2574 541.013 92.9151C541.739 92.3346 544.075 90.8281 546.141 90.8281C548.799 90.8281 551.538 91.9057 551.565 91.9162C551.926 92.0605 552.335 92.0165 552.657 91.7985C552.979 91.5805 553.172 91.217 553.172 90.8281C553.104 89.9727 553.555 87.1334 551.717 81.949L555.594 80.5013V95.8157C554.991 96.1413 554.466 96.7252 554.06 97.5363C553.538 98.5812 553.25 99.9445 553.25 101.375V103.719C553.25 104.366 553.775 104.891 554.422 104.891H559.109C559.757 104.891 560.281 104.366 560.281 103.719V101.375C560.281 99.9445 559.994 98.5812 559.471 97.5363C559.066 96.7252 558.54 96.1413 557.938 95.8157ZM540.281 72.1572L555.76 77.9375C554.163 78.5338 541.827 83.1408 540.281 83.7178C538.736 83.1408 526.4 78.5338 524.803 77.9375L540.281 72.1572ZM550.819 89.2049C549.617 88.8632 547.89 88.4844 546.141 88.4844C543.744 88.4844 541.424 89.7982 540.281 90.5594C539.139 89.7982 536.819 88.4844 534.422 88.4844C532.672 88.4844 530.946 88.8632 529.744 89.2049C529.811 86.8224 530.235 85.048 531.041 82.769L539.871 86.0666C540.136 86.1653 540.427 86.1653 540.691 86.0666L549.521 82.769C550.328 85.048 550.751 86.8225 550.819 89.2049ZM557.938 102.547H555.594V101.375C555.594 100.317 555.799 99.2998 556.156 98.5845C556.456 97.9855 556.725 97.8594 556.766 97.8594C556.806 97.8594 557.075 97.9855 557.375 98.5845C557.732 99.2998 557.938 100.317 557.938 101.375V102.547Z" fill="#BA4067"/>
</g>
<path d="M541.058 116.746C523.58 116.746 509.359 102.525 509.359 85.0776C509.367 76.673 512.71 68.6149 518.652 62.672C524.595 56.729 532.653 53.3868 541.058 53.3789C558.506 53.3789 572.727 67.6 572.727 85.0776C572.711 93.4718 569.37 101.518 563.434 107.453C557.498 113.389 549.452 116.731 541.058 116.746ZM541.058 54.3947C534.988 54.3888 529.053 56.1833 524.003 59.5512C518.954 62.9191 515.016 67.709 512.689 73.315C510.363 78.9211 509.751 85.0913 510.931 91.0452C512.112 96.9991 515.032 102.469 519.322 106.763C523.611 111.057 529.079 113.982 535.031 115.169C540.984 116.355 547.155 115.749 552.763 113.428C558.371 111.106 563.165 107.174 566.538 102.127C569.911 97.0808 571.711 91.1474 571.711 85.0776C571.695 76.95 568.462 69.1594 562.717 63.4095C556.973 57.6596 549.186 54.4184 541.058 54.3947Z" fill="url(#paint8_linear)"/>
<path d="M632.959 140.78C633.263 140.773 633.552 140.648 633.764 140.43C633.977 140.213 634.096 139.921 634.096 139.617V139.061C634.096 138.76 633.976 138.471 633.763 138.257C633.549 138.044 633.26 137.924 632.959 137.924C632.657 137.924 632.368 138.044 632.154 138.257C631.941 138.471 631.821 138.76 631.821 139.061V139.617C631.821 139.921 631.94 140.213 632.153 140.43C632.365 140.648 632.655 140.773 632.959 140.78ZM632.959 134.46C633.263 134.453 633.552 134.327 633.764 134.11C633.977 133.892 634.096 133.6 634.096 133.296V132.715C634.096 132.413 633.976 132.124 633.763 131.91C633.549 131.697 633.26 131.577 632.959 131.577C632.657 131.577 632.368 131.697 632.154 131.91C631.941 132.124 631.821 132.413 631.821 132.715V133.296C631.821 133.6 631.94 133.892 632.153 134.11C632.365 134.327 632.655 134.453 632.959 134.46ZM632.959 128.14C633.263 128.133 633.552 128.007 633.764 127.79C633.977 127.572 634.096 127.28 634.096 126.976V126.394C634.096 126.093 633.976 125.803 633.763 125.59C633.549 125.377 633.26 125.257 632.959 125.257C632.657 125.257 632.368 125.377 632.154 125.59C631.941 125.803 631.821 126.093 631.821 126.394V126.976C631.821 127.28 631.94 127.572 632.153 127.79C632.365 128.007 632.655 128.133 632.959 128.14ZM632.959 121.793C633.26 121.793 633.549 121.673 633.763 121.46C633.976 121.246 634.096 120.957 634.096 120.656V120.074C634.096 119.772 633.976 119.483 633.763 119.27C633.549 119.056 633.26 118.937 632.959 118.937C632.657 118.937 632.368 119.056 632.154 119.27C631.941 119.483 631.821 119.772 631.821 120.074V120.656C631.821 120.957 631.941 121.246 632.154 121.46C632.368 121.673 632.657 121.793 632.959 121.793ZM632.959 115.472C633.26 115.472 633.549 115.352 633.763 115.139C633.976 114.926 634.096 114.637 634.096 114.335V113.753C634.096 113.452 633.976 113.163 633.763 112.949C633.549 112.736 633.26 112.616 632.959 112.616C632.657 112.616 632.368 112.736 632.154 112.949C631.941 113.163 631.821 113.452 631.821 113.753V114.335C631.821 114.637 631.941 114.926 632.154 115.139C632.368 115.352 632.657 115.472 632.959 115.472Z" fill="#4C6FFF" fill-opacity="0.5"/>
<path d="M657.826 90.5352H633.496V107.989L657.826 90.5352Z" fill="url(#paint9_linear)"/>
<path d="M657.826 90.5352H633.496V107.989L657.826 90.5352Z" fill="url(#paint10_linear)"/>
<path d="M657.826 90.5352H633.496V107.989L657.826 90.5352Z" fill="#4C6FFF"/>
<path d="M599.346 65.1746C599.346 46.027 614.868 30.5049 634.016 30.5049C653.163 30.5049 668.686 46.027 668.686 65.1746C668.686 84.3221 653.163 99.8443 634.016 99.8443C614.868 99.8443 599.346 84.3221 599.346 65.1746Z" fill="url(#paint11_linear)"/>
<path d="M599.346 65.1746C599.346 46.027 614.868 30.5049 634.016 30.5049C653.163 30.5049 668.686 46.027 668.686 65.1746C668.686 84.3221 653.163 99.8443 634.016 99.8443C614.868 99.8443 599.346 84.3221 599.346 65.1746Z" fill="#4C6FFF"/>
<g filter="url(#filter3_d)">
<path d="M630.141 150.557C628.571 148.987 628.571 146.442 630.141 144.873C631.711 143.303 634.256 143.303 635.826 144.873C637.395 146.442 637.395 148.987 635.826 150.557C634.256 152.127 631.711 152.127 630.141 150.557Z" fill="url(#paint12_linear)"/>
<path d="M630.141 150.557C628.571 148.987 628.571 146.442 630.141 144.873C631.711 143.303 634.256 143.303 635.826 144.873C637.395 146.442 637.395 148.987 635.826 150.557C634.256 152.127 631.711 152.127 630.141 150.557Z" fill="#4C6FFF"/>
<path d="M630.606 145.338C629.293 146.651 629.293 148.779 630.606 150.092C631.919 151.405 634.048 151.405 635.36 150.092C636.673 148.779 636.673 146.651 635.36 145.338C634.048 144.025 631.919 144.025 630.606 145.338Z" stroke="white" stroke-width="1.31593"/>
</g>
<path d="M653.512 84.5115C664.284 73.7399 664.284 56.2757 653.512 45.5041C642.74 34.7326 625.276 34.7326 614.505 45.5042C603.733 56.2757 603.733 73.7399 614.505 84.5115C625.276 95.2831 642.74 95.2831 653.512 84.5115Z" fill="url(#paint13_linear)"/>
<g clip-path="url(#clip3)">
<path d="M648.443 51.8984H645.748V50.9023C645.748 50.417 645.355 50.0234 644.869 50.0234C644.384 50.0234 643.99 50.417 643.99 50.9023V51.8984H640.475V50.9023C640.475 50.417 640.081 50.0234 639.596 50.0234C639.11 50.0234 638.717 50.417 638.717 50.9023V51.8984H635.201V50.9023C635.201 50.417 634.808 50.0234 634.322 50.0234C633.837 50.0234 633.443 50.417 633.443 50.9023V51.8984H629.928V50.9023C629.928 50.417 629.534 50.0234 629.049 50.0234C628.563 50.0234 628.17 50.417 628.17 50.9023V51.8984H624.654V50.9023C624.654 50.417 624.261 50.0234 623.775 50.0234C623.29 50.0234 622.896 50.417 622.896 50.9023V51.8984H620.201C619.716 51.8984 619.322 52.292 619.322 52.7773V79.1445C619.322 79.6299 619.716 80.0234 620.201 80.0234H648.443C648.929 80.0234 649.322 79.6299 649.322 79.1445V52.7773C649.322 52.292 648.929 51.8984 648.443 51.8984ZM622.896 53.6562V54.5352C622.896 55.0205 623.29 55.4141 623.775 55.4141C624.261 55.4141 624.654 55.0205 624.654 54.5352V53.6562H628.17V54.5352C628.17 55.0205 628.563 55.4141 629.049 55.4141C629.534 55.4141 629.928 55.0205 629.928 54.5352V53.6562H633.443V54.5352C633.443 55.0205 633.837 55.4141 634.322 55.4141C634.808 55.4141 635.201 55.0205 635.201 54.5352V53.6562H638.717V54.5352C638.717 55.0205 639.11 55.4141 639.596 55.4141C640.081 55.4141 640.475 55.0205 640.475 54.5352V53.6562H643.99V54.5352C643.99 55.0205 644.384 55.4141 644.869 55.4141C645.355 55.4141 645.748 55.0205 645.748 54.5352V53.6562H647.564V57.1719H621.08V53.6562H622.896ZM621.08 78.2656V58.9297H647.564V78.2656H621.08Z" fill="#4C6FFF"/>
<path d="M629.049 62.4453H625.533C625.048 62.4453 624.654 62.8388 624.654 63.3242V66.8398C624.654 67.3252 625.048 67.7188 625.533 67.7188H629.049C629.534 67.7188 629.928 67.3252 629.928 66.8398V63.3242C629.928 62.8388 629.534 62.4453 629.049 62.4453ZM628.17 65.9609H626.412V64.2031H628.17V65.9609Z" fill="#4C6FFF"/>
<path d="M643.111 62.4453H639.596C639.11 62.4453 638.717 62.8388 638.717 63.3242V66.8398C638.717 67.3252 639.11 67.7188 639.596 67.7188H643.111C643.597 67.7188 643.99 67.3252 643.99 66.8398V63.3242C643.99 62.8388 643.597 62.4453 643.111 62.4453ZM642.232 65.9609H640.475V64.2031H642.232V65.9609Z" fill="#4C6FFF"/>
<path d="M636.08 69.418H632.564C632.079 69.418 631.686 69.8115 631.686 70.2969V73.8125C631.686 74.2979 632.079 74.6914 632.564 74.6914H636.08C636.565 74.6914 636.959 74.2979 636.959 73.8125V70.2969C636.959 69.8115 636.565 69.418 636.08 69.418ZM635.201 72.9336H633.443V71.1758H635.201V72.9336Z" fill="#4C6FFF"/>
<path d="M636.08 62.4453H632.564C632.079 62.4453 631.686 62.8388 631.686 63.3242V66.8398C631.686 67.3252 632.079 67.7188 632.564 67.7188H636.08C636.565 67.7188 636.959 67.3252 636.959 66.8398V63.3242C636.959 62.8388 636.565 62.4453 636.08 62.4453ZM635.201 65.9609H633.443V64.2031H635.201V65.9609Z" fill="#4C6FFF"/>
<path d="M643.111 69.418H639.596C639.11 69.418 638.717 69.8115 638.717 70.2969V73.8125C638.717 74.2979 639.11 74.6914 639.596 74.6914H643.111C643.597 74.6914 643.99 74.2979 643.99 73.8125V70.2969C643.99 69.8115 643.597 69.418 643.111 69.418ZM642.232 72.9336H640.475V71.1758H642.232V72.9336Z" fill="#4C6FFF"/>
<path d="M629.603 70.2468C629.227 69.9405 628.673 69.9977 628.367 70.3743L626.58 72.5723L626.091 72.171C625.715 71.8631 625.161 71.918 624.854 72.2933C624.546 72.6686 624.601 73.2224 624.976 73.5302L626.148 74.4911C626.525 74.8005 627.081 74.7428 627.387 74.366L629.731 71.4831C630.037 71.1065 629.98 70.553 629.603 70.2468Z" fill="#4C6FFF"/>
</g>
<path d="M633.999 93.0464C618.528 93.0464 605.94 80.4585 605.94 65.0144C605.947 57.575 608.906 50.4424 614.166 45.1819C619.427 39.9215 626.559 36.9631 633.999 36.9561C649.443 36.9561 662.031 49.544 662.031 65.0144C662.017 72.4447 659.059 79.5666 653.805 84.8206C648.551 90.0746 641.429 93.0324 633.999 93.0464ZM633.999 37.8552C628.626 37.85 623.373 39.4384 618.903 42.4195C614.433 45.4006 610.948 49.6405 608.888 54.6027C606.828 59.5649 606.287 65.0266 607.332 70.2967C608.377 75.5668 610.961 80.4086 614.759 84.2095C618.556 88.0105 623.395 90.5998 628.664 91.6499C633.933 92.7 639.395 92.1637 644.36 90.1088C649.324 88.054 653.567 84.5729 656.553 80.1061C659.538 75.6392 661.132 70.3872 661.132 65.0144C661.118 57.8202 658.255 50.9243 653.171 45.8347C648.086 40.7451 641.193 37.8762 633.999 37.8552Z" fill="url(#paint14_linear)"/>
<path d="M767.411 143.104C767.703 143.098 767.98 142.977 768.184 142.769C768.388 142.56 768.502 142.28 768.502 141.988V141.456C768.502 141.166 768.387 140.889 768.182 140.684C767.978 140.48 767.7 140.365 767.411 140.365C767.122 140.365 766.844 140.48 766.64 140.684C766.435 140.889 766.32 141.166 766.32 141.456V141.988C766.32 142.28 766.434 142.56 766.638 142.769C766.842 142.977 767.12 143.098 767.411 143.104ZM767.411 137.042C767.703 137.035 767.98 136.914 768.184 136.706C768.388 136.497 768.502 136.217 768.502 135.925V135.367C768.502 135.078 768.387 134.801 768.182 134.596C767.978 134.391 767.7 134.277 767.411 134.277C767.122 134.277 766.844 134.391 766.64 134.596C766.435 134.801 766.32 135.078 766.32 135.367V135.925C766.32 136.217 766.434 136.497 766.638 136.706C766.842 136.914 767.12 137.035 767.411 137.042ZM767.411 130.979C767.703 130.972 767.98 130.852 768.184 130.643C768.388 130.434 768.502 130.154 768.502 129.863V129.304C768.502 129.015 768.387 128.738 768.182 128.533C767.978 128.329 767.7 128.214 767.411 128.214C767.122 128.214 766.844 128.329 766.64 128.533C766.435 128.738 766.32 129.015 766.32 129.304V129.863C766.32 130.154 766.434 130.434 766.638 130.643C766.842 130.852 767.12 130.972 767.411 130.979ZM767.411 124.89C767.7 124.89 767.978 124.776 768.182 124.571C768.387 124.366 768.502 124.089 768.502 123.8V123.242C768.502 122.952 768.387 122.675 768.182 122.47C767.978 122.266 767.7 122.151 767.411 122.151C767.122 122.151 766.844 122.266 766.64 122.47C766.435 122.675 766.32 122.952 766.32 123.242V123.8C766.32 124.089 766.435 124.366 766.64 124.571C766.844 124.776 767.122 124.89 767.411 124.89ZM767.411 118.828C767.7 118.828 767.978 118.713 768.182 118.508C768.387 118.304 768.502 118.026 768.502 117.737V117.179C768.502 116.889 768.387 116.612 768.182 116.407C767.978 116.203 767.7 116.088 767.411 116.088C767.122 116.088 766.844 116.203 766.64 116.407C766.435 116.612 766.32 116.889 766.32 117.179V117.737C766.32 118.026 766.435 118.304 766.64 118.508C766.844 118.713 767.122 118.828 767.411 118.828Z" fill="#4C6FFF" fill-opacity="0.5"/>
<path d="M791.264 94.9053H767.926V111.648L791.264 94.9053Z" fill="url(#paint15_linear)"/>
<path d="M791.264 94.9053H767.926V111.648L791.264 94.9053Z" fill="url(#paint16_linear)"/>
<path d="M791.264 94.9053H767.926V111.648L791.264 94.9053Z" fill="#4C6FFF"/>
<path d="M735.169 70.5764C735.169 52.209 750.059 37.3193 768.427 37.3193C786.794 37.3193 801.684 52.209 801.684 70.5764C801.684 88.9437 786.794 103.833 768.427 103.833C750.059 103.833 735.169 88.9437 735.169 70.5764Z" fill="url(#paint17_linear)"/>
<path d="M735.169 70.5764C735.169 52.209 750.059 37.3193 768.427 37.3193C786.794 37.3193 801.684 52.209 801.684 70.5764C801.684 88.9437 786.794 103.833 768.427 103.833C750.059 103.833 735.169 88.9437 735.169 70.5764Z" fill="#4C6FFF"/>
<g filter="url(#filter4_d)">
<path d="M764.221 154.371C762.445 152.596 762.445 149.717 764.221 147.941C765.996 146.166 768.875 146.166 770.65 147.941C772.426 149.717 772.426 152.596 770.65 154.371C768.875 156.147 765.996 156.147 764.221 154.371Z" fill="url(#paint18_linear)"/>
<path d="M764.221 154.371C762.445 152.596 762.445 149.717 764.221 147.941C765.996 146.166 768.875 146.166 770.65 147.941C772.426 149.717 772.426 152.596 770.65 154.371C768.875 156.147 765.996 156.147 764.221 154.371Z" fill="#4C6FFF"/>
<path d="M764.686 148.407C763.168 149.925 763.168 152.387 764.686 153.906C766.205 155.424 768.667 155.424 770.185 153.906C771.704 152.387 771.704 149.925 770.185 148.407C768.667 146.888 766.205 146.888 764.686 148.407Z" stroke="white" stroke-width="1.31593"/>
</g>
<path d="M787.127 89.127C797.46 78.7943 797.46 62.0417 787.127 51.709C776.794 41.3763 760.042 41.3763 749.709 51.709C739.376 62.0417 739.376 78.7943 749.709 89.127C760.042 99.4596 776.794 99.4596 787.127 89.127Z" fill="url(#paint19_linear)"/>
<g clip-path="url(#clip4)">
<path d="M777.667 56.6348H760.005C756.603 56.6348 753.836 59.4023 753.836 62.804C753.836 66.2057 756.603 68.9732 760.005 68.9732H764.497V73.9574L764.278 73.7734C763.194 72.8636 761.497 72.9375 760.496 73.9385C759.447 74.9873 759.516 76.6543 760.657 77.6112L764.497 80.8337V83.9395C764.497 84.4248 764.891 84.8184 765.376 84.8184H775.923C776.408 84.8184 776.802 84.4248 776.802 83.9395V74.0631C776.802 72.7356 775.808 71.6107 774.491 71.4466L769.771 70.8585V68.9731H777.667C781.068 68.9731 783.836 66.2056 783.836 62.8039C783.836 59.4021 781.068 56.6348 777.667 56.6348ZM766.255 83.0605V81.3027H775.044V83.0605H766.255ZM774.274 73.191C774.713 73.2457 775.044 73.6206 775.044 74.0631V79.5449H765.696L761.787 76.2646C761.44 75.9735 761.418 75.5022 761.739 75.1814C762.099 74.8212 762.758 74.7925 763.148 75.1199L764.811 76.5154C765.382 76.994 766.255 76.588 766.255 75.8421V64.6035C766.255 64.1189 766.649 63.7246 767.134 63.7246C767.618 63.7246 768.013 64.1189 768.013 64.6035V71.6348C768.013 72.0781 768.343 72.4521 768.783 72.5069L774.274 73.191ZM777.667 67.2153H769.771V64.6035C769.771 63.1496 768.588 61.9668 767.134 61.9668C765.68 61.9668 764.497 63.1496 764.497 64.6035V67.2153H760.005C757.573 67.2153 755.594 65.2364 755.594 62.804C755.594 60.3716 757.573 58.3926 760.005 58.3926H777.667C780.099 58.3926 782.078 60.3715 782.078 62.804C782.078 65.2364 780.099 67.2153 777.667 67.2153Z" fill="#4C6FFF"/>
<path d="M776.998 60.4079L774.104 63.302L772.967 62.1657C772.624 61.8224 772.067 61.8224 771.724 62.1657C771.381 62.5089 771.381 63.0654 771.724 63.4086L773.482 65.1664C773.825 65.5097 774.382 65.5097 774.725 65.1664L778.241 61.6508C778.584 61.3076 778.584 60.7511 778.241 60.4079C777.897 60.0646 777.341 60.0646 776.998 60.4079Z" fill="#4C6FFF"/>
</g>
<path d="M768.409 97.3146C753.569 97.3146 741.494 85.2396 741.494 70.4249C741.501 63.2886 744.339 56.4466 749.385 51.4004C754.431 46.3543 761.273 43.5165 768.409 43.5098C783.224 43.5098 795.299 55.5848 795.299 70.4249C795.286 77.5524 792.448 84.3841 787.408 89.424C782.368 94.4639 775.537 97.3012 768.409 97.3146ZM768.409 44.3723C763.255 44.3672 758.216 45.8909 753.928 48.7506C749.641 51.6102 746.297 55.6773 744.322 60.4374C742.346 65.1974 741.826 70.4365 742.829 75.4919C743.831 80.5473 746.31 85.1918 749.953 88.8379C753.595 92.4839 758.238 94.9677 763.292 95.9751C768.346 96.9824 773.586 96.4679 778.348 94.4968C783.11 92.5257 787.18 89.1865 790.044 84.9016C792.908 80.6167 794.437 75.5787 794.437 70.4249C794.423 63.5238 791.677 56.9088 786.8 52.0266C781.923 47.1445 775.31 44.3924 768.409 44.3723Z" fill="url(#paint20_linear)"/>
<path d="M920.895 139.189C921.135 139.183 921.362 139.084 921.53 138.913C921.697 138.742 921.791 138.512 921.791 138.272V137.835C921.791 137.597 921.697 137.369 921.529 137.201C921.361 137.033 921.133 136.939 920.895 136.939C920.658 136.939 920.43 137.033 920.262 137.201C920.094 137.369 919.999 137.597 919.999 137.835V138.272C919.999 138.512 920.093 138.742 920.26 138.913C920.428 139.084 920.656 139.183 920.895 139.189ZM920.895 134.209C921.135 134.204 921.362 134.105 921.53 133.934C921.697 133.762 921.791 133.532 921.791 133.293V132.834C921.791 132.597 921.697 132.369 921.529 132.201C921.361 132.033 921.133 131.938 920.895 131.938C920.658 131.938 920.43 132.033 920.262 132.201C920.094 132.369 919.999 132.597 919.999 132.834V133.293C919.999 133.532 920.093 133.762 920.26 133.934C920.428 134.105 920.656 134.204 920.895 134.209ZM920.895 129.23C921.135 129.224 921.362 129.125 921.53 128.954C921.697 128.783 921.791 128.553 921.791 128.313V127.855C921.791 127.617 921.697 127.389 921.529 127.221C921.361 127.053 921.133 126.959 920.895 126.959C920.658 126.959 920.43 127.053 920.262 127.221C920.094 127.389 919.999 127.617 919.999 127.855V128.313C919.999 128.553 920.093 128.783 920.26 128.954C920.428 129.125 920.656 129.224 920.895 129.23ZM920.895 124.23C921.133 124.23 921.361 124.135 921.529 123.967C921.697 123.799 921.791 123.571 921.791 123.334V122.875C921.791 122.638 921.697 122.41 921.529 122.242C921.361 122.074 921.133 121.979 920.895 121.979C920.658 121.979 920.43 122.074 920.262 122.242C920.094 122.41 919.999 122.638 919.999 122.875V123.334C919.999 123.571 920.094 123.799 920.262 123.967C920.43 124.135 920.658 124.23 920.895 124.23ZM920.895 119.25C921.133 119.25 921.361 119.156 921.529 118.988C921.697 118.82 921.791 118.592 921.791 118.354V117.896C921.791 117.658 921.697 117.43 921.529 117.262C921.361 117.094 921.133 117 920.895 117C920.658 117 920.43 117.094 920.262 117.262C920.094 117.43 919.999 117.658 919.999 117.896V118.354C919.999 118.592 920.094 118.82 920.262 118.988C920.43 119.156 920.658 119.25 920.895 119.25Z" fill="#4C6FFF" fill-opacity="0.5"/>
<path d="M921.5 268.246C922.168 268.234 922.804 268.017 923.271 267.642C923.739 267.266 924 266.762 924 266.237V265.278C924 264.757 923.737 264.258 923.268 263.89C922.799 263.521 922.163 263.315 921.5 263.315C920.837 263.315 920.201 263.521 919.732 263.89C919.263 264.258 919 264.757 919 265.278V266.237C919 266.762 919.261 267.266 919.729 267.642C920.196 268.017 920.832 268.234 921.5 268.246ZM921.5 257.333C922.168 257.321 922.804 257.104 923.271 256.728C923.739 256.353 924 255.849 924 255.324V254.319C924 253.798 923.737 253.299 923.268 252.931C922.799 252.562 922.163 252.355 921.5 252.355C920.837 252.355 920.201 252.562 919.732 252.931C919.263 253.299 919 253.798 919 254.319V255.324C919 255.849 919.261 256.353 919.729 256.728C920.196 257.104 920.832 257.321 921.5 257.333ZM921.5 246.419C922.168 246.407 922.804 246.19 923.271 245.815C923.739 245.439 924 244.935 924 244.41V243.406C924 242.885 923.737 242.385 923.268 242.017C922.799 241.649 922.163 241.442 921.5 241.442C920.837 241.442 920.201 241.649 919.732 242.017C919.263 242.385 919 242.885 919 243.406V244.41C919 244.935 919.261 245.439 919.729 245.815C920.196 246.19 920.832 246.407 921.5 246.419ZM921.5 235.46C922.163 235.46 922.799 235.253 923.268 234.885C923.737 234.517 924 234.018 924 233.497V232.492C924 231.971 923.737 231.472 923.268 231.104C922.799 230.736 922.163 230.529 921.5 230.529C920.837 230.529 920.201 230.736 919.732 231.104C919.263 231.472 919 231.971 919 232.492V233.497C919 234.018 919.263 234.517 919.732 234.885C920.201 235.253 920.837 235.46 921.5 235.46ZM921.5 224.547C922.163 224.547 922.799 224.34 923.268 223.972C923.737 223.604 924 223.104 924 222.583V221.579C924 221.058 923.737 220.559 923.268 220.19C922.799 219.822 922.163 219.615 921.5 219.615C920.837 219.615 920.201 219.822 919.732 220.19C919.263 220.559 919 221.058 919 221.579V222.583C919 223.104 919.263 223.604 919.732 223.972C920.201 224.34 920.837 224.547 921.5 224.547Z" fill="#4C6FFF" fill-opacity="0.5"/>
<path d="M921.5 321.864C922.168 321.853 922.804 321.641 923.271 321.276C923.739 320.91 924 320.418 924 319.907V318.972C924 318.465 923.737 317.978 923.268 317.62C922.799 317.261 922.163 317.059 921.5 317.059C920.837 317.059 920.201 317.261 919.732 317.62C919.263 317.978 919 318.465 919 318.972V319.907C919 320.418 919.261 320.91 919.729 321.276C920.196 321.641 920.832 321.853 921.5 321.864ZM921.5 311.231C922.168 311.219 922.804 311.008 923.271 310.642C923.739 310.276 924 309.785 924 309.273V308.294C924 307.787 923.737 307.3 923.268 306.942C922.799 306.583 922.163 306.381 921.5 306.381C920.837 306.381 920.201 306.583 919.732 306.942C919.263 307.3 919 307.787 919 308.294V309.273C919 309.785 919.261 310.276 919.729 310.642C920.196 311.008 920.832 311.219 921.5 311.231ZM921.5 300.597C922.168 300.586 922.804 300.374 923.271 300.008C923.739 299.643 924 299.151 924 298.64V297.661C924 297.153 923.737 296.667 923.268 296.308C922.799 295.949 922.163 295.748 921.5 295.748C920.837 295.748 920.201 295.949 919.732 296.308C919.263 296.667 919 297.153 919 297.661V298.64C919 299.151 919.261 299.643 919.729 300.008C920.196 300.374 920.832 300.586 921.5 300.597ZM921.5 289.919C922.163 289.919 922.799 289.718 923.268 289.359C923.737 289 924 288.513 924 288.006V287.027C924 286.52 923.737 286.033 923.268 285.674C922.799 285.316 922.163 285.114 921.5 285.114C920.837 285.114 920.201 285.316 919.732 285.674C919.263 286.033 919 286.52 919 287.027V288.006C919 288.513 919.263 289 919.732 289.359C920.201 289.718 920.837 289.919 921.5 289.919ZM921.5 279.286C922.163 279.286 922.799 279.084 923.268 278.725C923.737 278.366 924 277.88 924 277.372V276.394C924 275.886 923.737 275.4 923.268 275.041C922.799 274.682 922.163 274.48 921.5 274.48C920.837 274.48 920.201 274.682 919.732 275.041C919.263 275.4 919 275.886 919 276.394V277.372C919 277.88 919.263 278.366 919.732 278.725C920.201 279.084 920.837 279.286 921.5 279.286Z" fill="#4C6FFF" fill-opacity="0.5"/>
<path d="M921.5 214.627C922.168 214.615 922.804 214.398 923.271 214.023C923.739 213.647 924 213.143 924 212.618V211.659C924 211.138 923.737 210.639 923.268 210.271C922.799 209.902 922.163 209.695 921.5 209.695C920.837 209.695 920.201 209.902 919.732 210.271C919.263 210.639 919 211.138 919 211.659V212.618C919 213.143 919.261 213.647 919.729 214.023C920.196 214.398 920.832 214.615 921.5 214.627ZM921.5 203.714C922.168 203.702 922.804 203.485 923.271 203.109C923.739 202.734 924 202.229 924 201.704V200.7C924 200.179 923.737 199.68 923.268 199.311C922.799 198.943 922.163 198.736 921.5 198.736C920.837 198.736 920.201 198.943 919.732 199.311C919.263 199.68 919 200.179 919 200.7V201.704C919 202.229 919.261 202.734 919.729 203.109C920.196 203.485 920.832 203.702 921.5 203.714ZM921.5 192.8C922.168 192.788 922.804 192.571 923.271 192.196C923.739 191.82 924 191.316 924 190.791V189.786C924 189.266 923.737 188.766 923.268 188.398C922.799 188.03 922.163 187.823 921.5 187.823C920.837 187.823 920.201 188.03 919.732 188.398C919.263 188.766 919 189.266 919 189.786V190.791C919 191.316 919.261 191.82 919.729 192.196C920.196 192.571 920.832 192.788 921.5 192.8ZM921.5 181.841C922.163 181.841 922.799 181.634 923.268 181.266C923.737 180.898 924 180.398 924 179.878V178.873C924 178.352 923.737 177.853 923.268 177.485C922.799 177.116 922.163 176.91 921.5 176.91C920.837 176.91 920.201 177.116 919.732 177.485C919.263 177.853 919 178.352 919 178.873V179.878C919 180.398 919.263 180.898 919.732 181.266C920.201 181.634 920.837 181.841 921.5 181.841ZM921.5 170.928C922.163 170.928 922.799 170.721 923.268 170.353C923.737 169.984 924 169.485 924 168.964V167.96C924 167.439 923.737 166.939 923.268 166.571C922.799 166.203 922.163 165.996 921.5 165.996C920.837 165.996 920.201 166.203 919.732 166.571C919.263 166.939 919 167.439 919 167.96V168.964C919 169.485 919.263 169.984 919.732 170.353C920.201 170.721 920.837 170.928 921.5 170.928Z" fill="#4C6FFF" fill-opacity="0.5"/>
<path d="M941.463 100.271H920.463V115.271L941.463 100.271Z" fill="url(#paint21_linear)"/>
<path d="M941.463 100.271H920.463V115.271L941.463 100.271Z" fill="url(#paint22_linear)"/>
<path d="M941.463 100.271H920.463V115.271L941.463 100.271Z" fill="#4C6FFF"/>
<path d="M890.463 78.2715C890.463 61.7029 903.894 48.2715 920.463 48.2715C937.031 48.2715 950.463 61.7029 950.463 78.2715C950.463 94.84 937.031 108.271 920.463 108.271C903.894 108.271 890.463 94.84 890.463 78.2715Z" fill="url(#paint23_linear)"/>
<path d="M890.463 78.2715C890.463 61.7029 903.894 48.2715 920.463 48.2715C937.031 48.2715 950.463 61.7029 950.463 78.2715C950.463 94.84 937.031 108.271 920.463 108.271C903.894 108.271 890.463 94.84 890.463 78.2715Z" fill="url(#paint24_linear)"/>
<path d="M890.463 78.2715C890.463 61.7029 903.894 48.2715 920.463 48.2715C937.031 48.2715 950.463 61.7029 950.463 78.2715C950.463 94.84 937.031 108.271 920.463 108.271C903.894 108.271 890.463 94.84 890.463 78.2715Z" fill="#4C6FFF"/>
<g filter="url(#filter5_d)">
<path d="M915.378 154.35C912.564 151.537 912.564 146.975 915.378 144.162C918.191 141.348 922.753 141.348 925.566 144.162C928.379 146.975 928.379 151.537 925.566 154.35C922.753 157.163 918.191 157.164 915.378 154.35Z" fill="url(#paint25_linear)"/>
<path d="M915.378 154.35C912.564 151.537 912.564 146.975 915.378 144.162C918.191 141.348 922.753 141.348 925.566 144.162C928.379 146.975 928.379 151.537 925.566 154.35C922.753 157.163 918.191 157.164 915.378 154.35Z" fill="#4C6FFF"/>
<path d="M915.843 144.627C913.286 147.183 913.286 151.328 915.843 153.885C918.399 156.441 922.544 156.441 925.101 153.885C927.657 151.328 927.657 147.183 925.101 144.627C922.544 142.07 918.399 142.07 915.843 144.627Z" stroke="white" stroke-width="1.31593"/>
</g>
<path d="M937.597 94.5972C946.912 85.2825 946.912 70.1804 937.597 60.8657C928.282 51.551 913.18 51.5511 903.866 60.8657C894.551 70.1804 894.551 85.2825 903.866 94.5972C913.18 103.912 928.282 103.912 937.597 94.5972Z" fill="url(#paint26_linear)"/>
<path d="M912.61 79.44L913.362 80.912C913.01 81.2854 912.503 81.5894 911.842 81.824C911.191 82.0587 910.503 82.176 909.778 82.176C908.071 82.176 906.679 81.648 905.602 80.592C904.535 79.536 904.002 78.1387 904.002 76.4C904.002 74.736 904.509 73.3547 905.522 72.256C906.525 71.168 907.927 70.624 909.73 70.624C911.159 70.624 912.295 71.0027 913.138 71.76L912.258 73.216C911.501 72.7147 910.658 72.464 909.73 72.464C908.663 72.464 907.789 72.8214 907.106 73.536C906.423 74.2507 906.082 75.2054 906.082 76.4C906.082 77.5734 906.439 78.5227 907.154 79.248C907.879 79.9734 908.813 80.336 909.954 80.336C910.935 80.336 911.821 80.0374 912.61 79.44Z" fill="#4C6FFF"/>
<path d="M917.286 77.808V82H915.318V70.8C915.873 70.8 916.476 70.7947 917.126 70.784C917.777 70.7734 918.31 70.768 918.726 70.768C921.436 70.768 922.79 71.92 922.79 74.224C922.79 75.0774 922.572 75.7814 922.134 76.336C921.697 76.8694 921.196 77.232 920.63 77.424L924.134 82H921.75L918.662 77.808H917.286ZM918.63 72.608C918.577 72.608 918.492 72.6134 918.374 72.624C918.257 72.624 918.092 72.6294 917.878 72.64C917.665 72.64 917.468 72.64 917.286 72.64V75.968H918.566C919.196 75.968 919.708 75.8134 920.102 75.504C920.508 75.1947 920.71 74.7734 920.71 74.24C920.71 73.152 920.017 72.608 918.63 72.608Z" fill="#4C6FFF"/>
<path d="M927.818 82H925.85V70.8H927.834L931.658 76.032L935.306 70.8H937.162V82H935.21V73.904L931.674 78.88H931.386L927.818 73.952V82Z" fill="#4C6FFF"/>
<path d="M920.724 101.978C907.346 101.978 896.461 91.0931 896.461 77.738C896.467 71.3048 899.025 65.1368 903.574 60.5879C908.123 56.0389 914.291 53.4807 920.724 53.4746C934.079 53.4746 944.965 64.36 944.965 77.738C944.953 84.1633 942.395 90.3219 937.852 94.8653C933.308 99.4086 927.15 101.966 920.724 101.978ZM920.724 54.2521C916.078 54.2476 911.535 55.6212 907.67 58.1991C903.805 60.777 900.791 64.4434 899.01 68.7345C897.229 73.0256 896.76 77.7485 897.664 82.3058C898.568 86.8631 900.803 91.05 904.086 94.3369C907.37 97.6237 911.555 99.8628 916.111 100.771C920.668 101.679 925.391 101.215 929.684 99.4383C933.977 97.6613 937.646 94.6511 940.228 90.7884C942.809 86.9257 944.187 82.384 944.187 77.738C944.175 71.5168 941.7 65.5536 937.303 61.1524C932.906 56.7512 926.945 54.2703 920.724 54.2521Z" fill="url(#paint27_linear)"/>
<defs>
<filter id="filter0_d" x="254.357" y="231.353" width="36.2092" height="36.2092" filterUnits="userSpaceOnUse" color-interpolation-filters="sRGB">
<feFlood flood-opacity="0" result="BackgroundImageFix"/>
<feColorMatrix in="SourceAlpha" type="matrix" values="0 0 0 0 0 0 0 0 0 0 0 0 0 0 0 0 0 0 127 0"/>
<feOffset dx="2" dy="3"/>
<feGaussianBlur stdDeviation="5"/>
<feColorMatrix type="matrix" values="0 0 0 0 0.254026 0 0 0 0 0.241871 0 0 0 0 0.395211 0 0 0 0.4 0"/>
<feBlend mode="normal" in2="BackgroundImageFix" result="effect1_dropShadow"/>
<feBlend mode="normal" in="SourceGraphic" in2="effect1_dropShadow" result="shape"/>
</filter>
<filter id="filter1_d" x="390.747" y="221.936" width="31.5386" height="31.5386" filterUnits="userSpaceOnUse" color-interpolation-filters="sRGB">
<feFlood flood-opacity="0" result="BackgroundImageFix"/>
<feColorMatrix in="SourceAlpha" type="matrix" values="0 0 0 0 0 0 0 0 0 0 0 0 0 0 0 0 0 0 127 0"/>
<feOffset dx="2" dy="3"/>
<feGaussianBlur stdDeviation="5"/>
<feColorMatrix type="matrix" values="0 0 0 0 0.254026 0 0 0 0 0.241871 0 0 0 0 0.395211 0 0 0 0.4 0"/>
<feBlend mode="normal" in2="BackgroundImageFix" result="effect1_dropShadow"/>
<feBlend mode="normal" in="SourceGraphic" in2="effect1_dropShadow" result="shape"/>
</filter>
<filter id="filter2_d" x="527.37" y="166.968" width="29.0824" height="29.0824" filterUnits="userSpaceOnUse" color-interpolation-filters="sRGB">
<feFlood flood-opacity="0" result="BackgroundImageFix"/>
<feColorMatrix in="SourceAlpha" type="matrix" values="0 0 0 0 0 0 0 0 0 0 0 0 0 0 0 0 0 0 127 0"/>
<feOffset dx="2" dy="3"/>
<feGaussianBlur stdDeviation="5"/>
<feColorMatrix type="matrix" values="0 0 0 0 0.254026 0 0 0 0 0.241871 0 0 0 0 0.395211 0 0 0 0.4 0"/>
<feBlend mode="normal" in2="BackgroundImageFix" result="effect1_dropShadow"/>
<feBlend mode="normal" in="SourceGraphic" in2="effect1_dropShadow" result="shape"/>
</filter>
<filter id="filter3_d" x="620.964" y="136.695" width="28.0394" height="28.0394" filterUnits="userSpaceOnUse" color-interpolation-filters="sRGB">
<feFlood flood-opacity="0" result="BackgroundImageFix"/>
<feColorMatrix in="SourceAlpha" type="matrix" values="0 0 0 0 0 0 0 0 0 0 0 0 0 0 0 0 0 0 127 0"/>
<feOffset dx="2" dy="3"/>
<feGaussianBlur stdDeviation="5"/>
<feColorMatrix type="matrix" values="0 0 0 0 0.254026 0 0 0 0 0.241871 0 0 0 0 0.395211 0 0 0 0.4 0"/>
<feBlend mode="normal" in2="BackgroundImageFix" result="effect1_dropShadow"/>
<feBlend mode="normal" in="SourceGraphic" in2="effect1_dropShadow" result="shape"/>
</filter>
<filter id="filter4_d" x="754.889" y="139.609" width="29.0928" height="29.0928" filterUnits="userSpaceOnUse" color-interpolation-filters="sRGB">
<feFlood flood-opacity="0" result="BackgroundImageFix"/>
<feColorMatrix in="SourceAlpha" type="matrix" values="0 0 0 0 0 0 0 0 0 0 0 0 0 0 0 0 0 0 127 0"/>
<feOffset dx="2" dy="3"/>
<feGaussianBlur stdDeviation="5"/>
<feColorMatrix type="matrix" values="0 0 0 0 0.254026 0 0 0 0 0.241871 0 0 0 0 0.395211 0 0 0 0.4 0"/>
<feBlend mode="normal" in2="BackgroundImageFix" result="effect1_dropShadow"/>
<feBlend mode="normal" in="SourceGraphic" in2="effect1_dropShadow" result="shape"/>
</filter>
<filter id="filter5_d" x="905.268" y="135.052" width="34.4085" height="34.4085" filterUnits="userSpaceOnUse" color-interpolation-filters="sRGB">
<feFlood flood-opacity="0" result="BackgroundImageFix"/>
<feColorMatrix in="SourceAlpha" type="matrix" values="0 0 0 0 0 0 0 0 0 0 0 0 0 0 0 0 0 0 127 0"/>
<feOffset dx="2" dy="3"/>
<feGaussianBlur stdDeviation="5"/>
<feColorMatrix type="matrix" values="0 0 0 0 0.254026 0 0 0 0 0.241871 0 0 0 0 0.395211 0 0 0 0.4 0"/>
<feBlend mode="normal" in2="BackgroundImageFix" result="effect1_dropShadow"/>
<feBlend mode="normal" in="SourceGraphic" in2="effect1_dropShadow" result="shape"/>
</filter>
<linearGradient id="paint0_linear" x1="236.16" y1="39.8366" x2="313.624" y2="117.301" gradientUnits="userSpaceOnUse">
<stop stop-color="#E2E1E6"/>
<stop offset="0.84" stop-color="white"/>
</linearGradient>
<linearGradient id="paint1_linear" x1="233.828" y1="37.7244" x2="314.073" y2="117.97" gradientUnits="userSpaceOnUse">
<stop stop-color="white"/>
<stop offset="1" stop-color="#E6E6E6"/>
</linearGradient>
<linearGradient id="paint2_linear" x1="405.252" y1="154.756" x2="439.364" y2="156.28" gradientUnits="userSpaceOnUse">
<stop stop-color="#5454D4"/>
<stop offset="0.505208" stop-color="#874CFA"/>
<stop offset="1" stop-color="#D680E6"/>
</linearGradient>
<linearGradient id="paint3_linear" x1="380.724" y1="88.1053" x2="435.867" y2="143.248" gradientUnits="userSpaceOnUse">
<stop stop-color="#E2E1E6"/>
<stop offset="0.84" stop-color="white"/>
</linearGradient>
<linearGradient id="paint4_linear" x1="379.065" y1="86.6006" x2="436.188" y2="143.724" gradientUnits="userSpaceOnUse">
<stop stop-color="white"/>
<stop offset="1" stop-color="#E6E6E6"/>
</linearGradient>
<linearGradient id="paint5_linear" x1="540.489" y1="115.579" x2="567.34" y2="116.778" gradientUnits="userSpaceOnUse">
<stop stop-color="#5454D4"/>
<stop offset="0.505208" stop-color="#874CFA"/>
<stop offset="1" stop-color="#D680E6"/>
</linearGradient>
<linearGradient id="paint6_linear" x1="580.245" y1="52.7192" x2="503.645" y2="55.1741" gradientUnits="userSpaceOnUse">
<stop stop-color="#5454D4"/>
<stop offset="0.505208" stop-color="#874CFA"/>
<stop offset="1" stop-color="#D680E6"/>
</linearGradient>
<linearGradient id="paint7_linear" x1="521.184" y1="63.1138" x2="564.588" y2="106.519" gradientUnits="userSpaceOnUse">
<stop stop-color="#E2E1E6"/>
<stop offset="0.84" stop-color="white"/>
</linearGradient>
<linearGradient id="paint8_linear" x1="519.877" y1="61.9298" x2="564.84" y2="106.893" gradientUnits="userSpaceOnUse">
<stop stop-color="white"/>
<stop offset="1" stop-color="#E6E6E6"/>
</linearGradient>
<linearGradient id="paint9_linear" x1="631.786" y1="104.883" x2="646.587" y2="87.3979" gradientUnits="userSpaceOnUse">
<stop stop-color="#00BBFF"/>
<stop offset="1" stop-color="#3A5AFF"/>
</linearGradient>
<linearGradient id="paint10_linear" x1="633.496" y1="92.012" x2="657.264" y2="93.0738" gradientUnits="userSpaceOnUse">
<stop stop-color="#5454D4"/>
<stop offset="0.505208" stop-color="#874CFA"/>
<stop offset="1" stop-color="#D680E6"/>
</linearGradient>
<linearGradient id="paint11_linear" x1="668.686" y1="36.372" x2="600.883" y2="38.545" gradientUnits="userSpaceOnUse">
<stop stop-color="#5454D4"/>
<stop offset="0.505208" stop-color="#874CFA"/>
<stop offset="1" stop-color="#D680E6"/>
</linearGradient>
<linearGradient id="paint12_linear" x1="638.187" y1="148.196" x2="632.45" y2="142.815" gradientUnits="userSpaceOnUse">
<stop stop-color="#5454D4"/>
<stop offset="0.505208" stop-color="#874CFA"/>
<stop offset="1" stop-color="#D680E6"/>
</linearGradient>
<linearGradient id="paint13_linear" x1="616.407" y1="45.5746" x2="654.828" y2="83.9947" gradientUnits="userSpaceOnUse">
<stop stop-color="#E2E1E6"/>
<stop offset="0.84" stop-color="white"/>
</linearGradient>
<linearGradient id="paint14_linear" x1="615.25" y1="44.5249" x2="655.05" y2="84.3246" gradientUnits="userSpaceOnUse">
<stop stop-color="white"/>
<stop offset="1" stop-color="#E6E6E6"/>
</linearGradient>
<linearGradient id="paint15_linear" x1="766.286" y1="108.669" x2="780.483" y2="91.8958" gradientUnits="userSpaceOnUse">
<stop stop-color="#00BBFF"/>
<stop offset="1" stop-color="#3A5AFF"/>
</linearGradient>
<linearGradient id="paint16_linear" x1="767.926" y1="96.322" x2="790.725" y2="97.3405" gradientUnits="userSpaceOnUse">
<stop stop-color="#5454D4"/>
<stop offset="0.505208" stop-color="#874CFA"/>
<stop offset="1" stop-color="#D680E6"/>
</linearGradient>
<linearGradient id="paint17_linear" x1="801.684" y1="42.9474" x2="736.643" y2="45.0319" gradientUnits="userSpaceOnUse">
<stop stop-color="#5454D4"/>
<stop offset="0.505208" stop-color="#874CFA"/>
<stop offset="1" stop-color="#D680E6"/>
</linearGradient>
<linearGradient id="paint18_linear" x1="773.321" y1="151.7" x2="766.833" y2="145.615" gradientUnits="userSpaceOnUse">
<stop stop-color="#5454D4"/>
<stop offset="0.505208" stop-color="#874CFA"/>
<stop offset="1" stop-color="#D680E6"/>
</linearGradient>
<linearGradient id="paint19_linear" x1="751.534" y1="51.7765" x2="788.389" y2="88.6312" gradientUnits="userSpaceOnUse">
<stop stop-color="#E2E1E6"/>
<stop offset="0.84" stop-color="white"/>
</linearGradient>
<linearGradient id="paint20_linear" x1="750.424" y1="50.7702" x2="788.602" y2="88.9483" gradientUnits="userSpaceOnUse">
<stop stop-color="white"/>
<stop offset="1" stop-color="#E6E6E6"/>
</linearGradient>
<linearGradient id="paint21_linear" x1="918.987" y1="112.603" x2="931.698" y2="97.5209" gradientUnits="userSpaceOnUse">
<stop stop-color="#00BBFF"/>
<stop offset="1" stop-color="#3A5AFF"/>
</linearGradient>
<linearGradient id="paint22_linear" x1="920.463" y1="101.541" x2="940.977" y2="102.461" gradientUnits="userSpaceOnUse">
<stop stop-color="#5454D4"/>
<stop offset="0.505208" stop-color="#874CFA"/>
<stop offset="1" stop-color="#D680E6"/>
</linearGradient>
<linearGradient id="paint23_linear" x1="954.679" y1="97.5958" x2="903.79" y2="54.4649" gradientUnits="userSpaceOnUse">
<stop stop-color="#00BBFF"/>
<stop offset="1" stop-color="#3A5AFF"/>
</linearGradient>
<linearGradient id="paint24_linear" x1="950.463" y1="53.3484" x2="891.792" y2="55.2287" gradientUnits="userSpaceOnUse">
<stop stop-color="#5454D4"/>
<stop offset="0.505208" stop-color="#874CFA"/>
<stop offset="1" stop-color="#D680E6"/>
</linearGradient>
<linearGradient id="paint25_linear" x1="929.798" y1="150.118" x2="919.516" y2="140.475" gradientUnits="userSpaceOnUse">
<stop stop-color="#5454D4"/>
<stop offset="0.505208" stop-color="#874CFA"/>
<stop offset="1" stop-color="#D680E6"/>
</linearGradient>
<linearGradient id="paint26_linear" x1="905.511" y1="60.9266" x2="938.735" y2="94.1503" gradientUnits="userSpaceOnUse">
<stop stop-color="#E2E1E6"/>
<stop offset="0.84" stop-color="white"/>
</linearGradient>
<linearGradient id="paint27_linear" x1="904.511" y1="60.0198" x2="938.928" y2="94.4364" gradientUnits="userSpaceOnUse">
<stop stop-color="white"/>
<stop offset="1" stop-color="#E6E6E6"/>
</linearGradient>
<clipPath id="clip0">
<rect width="60" height="60" fill="white" transform="translate(240.001 48.9961)"/>
</clipPath>
<clipPath id="clip1">
<rect width="44" height="44" fill="white" transform="translate(382.456 95.9961)"/>
</clipPath>
<clipPath id="clip2">
<rect width="40" height="40" fill="white" transform="translate(520.281 67.3125)"/>
</clipPath>
<clipPath id="clip3">
<rect width="30" height="30" fill="white" transform="translate(619.322 50.0234)"/>
</clipPath>
<clipPath id="clip4">
<rect width="30" height="30" fill="white" transform="translate(753.836 55.7266)"/>
</clipPath>
</defs>
</svg>
