<svg width="128" height="19" viewBox="0 0 128 19" fill="none" xmlns="http://www.w3.org/2000/svg">
<path d="M2.10042 2.21191L0.280273 13.4607H6.38022C7.49527 13.4607 8.6759 13.3132 9.54498 12.3949C10.0205 11.8866 10.3977 11.0667 10.3977 10.2796C10.3977 9.29572 9.97132 8.59062 9.46299 8.19708C9.16783 7.98391 8.82348 7.83633 8.49553 7.75434V7.72154C8.95466 7.62316 9.46299 7.40999 9.84014 7.13123C10.3157 6.78687 10.8732 6.09817 10.8732 4.99952C10.8732 3.86808 10.2829 3.17938 9.79094 2.83503C8.93826 2.24471 7.75763 2.21191 7.39688 2.21191H2.10042ZM4.98642 4.67157H6.26544C6.75737 4.67157 7.01973 4.76996 7.08532 4.80275C7.29849 4.90114 7.52806 5.09791 7.52806 5.55705C7.52806 5.80301 7.38048 6.03258 7.2329 6.16376C7.01973 6.34414 6.67538 6.45892 6.28183 6.45892H4.69126L4.98642 4.67157ZM4.29771 8.88578H5.67512C5.95388 8.88578 6.39662 8.98417 6.62619 9.13175C6.83936 9.26293 7.01973 9.54169 7.01973 9.96803C7.01973 10.3288 6.80656 10.5419 6.74097 10.6075C6.46221 10.9027 6.08506 10.9355 5.77351 10.9355H3.95336L4.29771 8.88578Z" fill="black"/>
<path d="M21.596 2.21191H13.1184L11.2655 13.4607H19.7267L20.1694 10.7715H15.1517L15.4305 8.93497H19.4643L19.907 6.50811H15.8568L16.1356 4.83555H21.1533L21.596 2.21191Z" fill="black"/>
<path d="M25.4713 2.21191L20.1912 13.4607H23.0444L24.0774 11.2307H27.0782L27.3406 13.4607H30.8497L29.1115 2.21191H25.4713ZM25.0285 8.80379L26.4715 5.52425L26.8651 8.80379H25.0285Z" fill="black"/>
<path d="M37.0095 2.21191H33.566L32.4345 9.16454C32.3689 9.57448 32.3197 9.96803 32.3197 10.3616C32.3197 11.6406 32.91 12.4769 33.7955 13.018C34.681 13.5427 35.6649 13.6247 36.5667 13.6247C37.6654 13.6247 38.7804 13.5263 39.7807 12.8048C41.3221 11.6898 41.4697 9.80405 41.6828 8.49224L42.7159 2.21191H40.0103L38.8624 9.11535C38.7804 9.57448 38.7312 10.0664 38.5017 10.4436C38.1573 10.9847 37.649 11.0995 37.1571 11.0995C36.8619 11.0995 36.3536 11.0503 36.042 10.6731C35.8452 10.4272 35.8124 10.132 35.8124 9.85325C35.8124 9.42691 35.8944 9.06616 35.96 8.63982L37.0095 2.21191Z" fill="black"/>
<path d="M43.7336 2.21191L43.2908 4.83555H45.6029L44.1927 13.4607H47.6362L49.0464 4.83555H51.3749L51.8176 2.21191H43.7336Z" fill="black"/>
<path d="M62.2416 2.21191H59.2244L56.6828 5.9178L55.3217 2.21191H51.5175L54.2067 8.70541L53.436 13.4607H56.8795L57.6502 8.70541L62.2416 2.21191Z" fill="black"/>
<path d="M66.7152 2.21191L64.8623 13.4607H67.5187L68.8469 5.42587H68.8797L69.7488 13.4607H71.9461L75.406 5.42587H75.4388L74.1106 13.4607H77.3573L79.2103 2.21191H74.4877L71.8641 8.18068H71.8313L71.1098 2.21191H66.7152Z" fill="black"/>
<path d="M83.4557 2.21191L78.1757 13.4607H81.0289L82.0619 11.2307H85.0627L85.3251 13.4607H88.8342L87.096 2.21191H83.4557ZM83.013 8.80379L84.456 5.52425L84.8495 8.80379H83.013Z" fill="black"/>
<path d="M91.616 2.21191L89.7631 13.4607H93.2066L93.6329 10.8535L95.1251 9.21374L96.3877 13.4607H100.159L97.6176 6.49172L101.274 2.21191H98.0439L94.3052 6.75408L95.0595 2.21191H91.616Z" fill="black"/>
<path d="M110.871 2.21191H102.393L100.54 13.4607H109.001L109.444 10.7715H104.426L104.705 8.93497H108.739L109.182 6.50811H105.131L105.41 4.83555H110.428L110.871 2.21191Z" fill="black"/>
<path d="M112.417 2.21191L110.564 13.4607H114.008L114.697 9.32852H116.025L116.96 13.4607H120.403L119.14 8.7546C119.649 8.55783 120.272 8.18068 120.665 7.73794C121.19 7.14762 121.485 6.22935 121.485 5.27829C121.485 4.22883 121.075 3.57292 120.682 3.17938C119.764 2.27751 118.321 2.21191 117.566 2.21191H112.417ZM115.451 4.67157H116.714C116.976 4.67157 117.386 4.72076 117.632 4.85194C117.829 4.96673 118.107 5.1963 118.107 5.68823C118.107 6.04898 117.943 6.39333 117.681 6.5901C117.419 6.80327 116.976 6.90166 116.451 6.90166H115.09L115.451 4.67157Z" fill="black"/>
<path d="M124.327 1.83189C124.327 1.50164 124.407 1.1951 124.568 0.912264C124.73 0.62943 124.953 0.407086 125.238 0.245232C125.524 0.0817441 125.833 0 126.164 0C126.495 0 126.803 0.0817441 127.088 0.245232C127.372 0.407086 127.595 0.62943 127.755 0.912264C127.917 1.1951 127.998 1.50164 127.998 1.83189C127.998 2.15396 127.921 2.45559 127.765 2.73679C127.61 3.01799 127.389 3.24442 127.103 3.41609C126.819 3.58611 126.506 3.67113 126.164 3.67113C125.824 3.67113 125.511 3.58693 125.225 3.41854C124.94 3.24851 124.72 3.0229 124.563 2.7417C124.406 2.4605 124.327 2.15723 124.327 1.83189ZM124.625 1.83189C124.625 2.11309 124.694 2.37385 124.832 2.61418C124.97 2.85287 125.157 3.04006 125.393 3.17576C125.631 3.31145 125.888 3.3793 126.164 3.3793C126.442 3.3793 126.7 3.31064 126.938 3.17331C127.176 3.03434 127.362 2.84633 127.496 2.60927C127.633 2.37221 127.701 2.11309 127.701 1.83189C127.701 1.55232 127.633 1.29483 127.496 1.0594C127.362 0.822346 127.176 0.635969 126.938 0.500274C126.7 0.362944 126.442 0.294279 126.164 0.294279C125.888 0.294279 125.631 0.362126 125.393 0.497822C125.155 0.631882 124.967 0.818259 124.829 1.05695C124.693 1.29564 124.625 1.55396 124.625 1.83189ZM125.784 2.01581V2.8447H125.419V0.762673H126.133C126.397 0.762673 126.601 0.816624 126.746 0.924526C126.893 1.03079 126.966 1.18611 126.966 1.39047C126.966 1.59156 126.856 1.74524 126.635 1.8515C126.845 1.93325 126.951 2.10001 126.953 2.35178V2.50137C126.953 2.64197 126.968 2.74333 126.997 2.80546V2.8447H126.622C126.598 2.78584 126.586 2.68121 126.586 2.5308C126.586 2.37875 126.583 2.28884 126.578 2.26104C126.55 2.10409 126.437 2.02235 126.239 2.01581H125.784ZM125.784 1.70191H126.187C126.311 1.69864 126.412 1.67003 126.487 1.61608C126.563 1.56213 126.601 1.49101 126.601 1.40273C126.601 1.28338 126.568 1.19919 126.5 1.15014C126.433 1.09946 126.313 1.07412 126.141 1.07412H125.784V1.70191Z" fill="black"/>
</svg>
