<svg width="184" height="26" viewBox="0 0 184 26" fill="none" xmlns="http://www.w3.org/2000/svg">
<g clip-path="url(#clip0)">
<path d="M3.01534 3.17383L0.402344 19.3226H9.15943C10.7602 19.3226 12.4551 19.1108 13.7027 17.7925C14.3854 17.0627 14.9269 15.8857 14.9269 14.7558C14.9269 13.3433 14.3148 12.3311 13.585 11.7661C13.1613 11.4601 12.667 11.2482 12.1962 11.1305V11.0835C12.8553 10.9422 13.585 10.6362 14.1265 10.236C14.8092 9.74164 15.6095 8.75294 15.6095 7.17572C15.6095 5.55142 14.7621 4.56272 14.0559 4.06837C12.8317 3.22091 11.1368 3.17383 10.6189 3.17383H3.01534ZM7.15848 6.70491H8.99464C9.70086 6.70491 10.0775 6.84615 10.1717 6.89324C10.4777 7.03448 10.8073 7.31696 10.8073 7.9761C10.8073 8.32921 10.5954 8.65878 10.3835 8.8471C10.0775 9.10605 9.58315 9.27083 9.01818 9.27083H6.73475L7.15848 6.70491ZM6.16978 12.7548H8.14718C8.54737 12.7548 9.18297 12.8961 9.51253 13.1079C9.81856 13.2963 10.0775 13.6965 10.0775 14.3085C10.0775 14.8264 9.77148 15.1324 9.67732 15.2266C9.27713 15.6503 8.7357 15.6974 8.28843 15.6974H5.67543L6.16978 12.7548Z" fill="white"/>
<path d="M31.0032 3.17383H18.8327L16.1727 19.3226H28.3196L28.9552 15.462H21.7518L22.152 12.8255H27.9429L28.5785 9.34145H22.764L23.1642 6.94032H30.3676L31.0032 3.17383Z" fill="white"/>
<path d="M36.5665 3.17383L28.9864 19.3226H33.0825L34.5656 16.1211H38.8735L39.2501 19.3226H44.2878L41.7925 3.17383H36.5665ZM35.9309 12.6371L38.0025 7.92902L38.5674 12.6371H35.9309Z" fill="white"/>
<path d="M53.1308 3.17383H48.1872L46.563 13.155C46.4688 13.7435 46.3982 14.3085 46.3982 14.8735C46.3982 16.7096 47.2456 17.9102 48.5168 18.687C49.788 19.4403 51.2004 19.558 52.4952 19.558C54.0724 19.558 55.6731 19.4168 57.1091 18.381C59.3219 16.7803 59.5338 14.0731 59.8398 12.1899L61.3229 3.17383H57.4387L55.7908 13.0844C55.6731 13.7435 55.6025 14.4497 55.2729 14.9912C54.7786 15.768 54.0488 15.9328 53.3426 15.9328C52.9189 15.9328 52.1891 15.8622 51.7419 15.3208C51.4594 14.9676 51.4123 14.5439 51.4123 14.1437C51.4123 13.5317 51.53 13.0138 51.6242 12.4017L53.1308 3.17383Z" fill="white"/>
<path d="M62.7839 3.17383L62.1483 6.94032H65.4675L63.443 19.3226H68.3865L70.411 6.94032H73.7537L74.3893 3.17383H62.7839Z" fill="white"/>
<path d="M89.354 3.17383H85.0225L81.3737 8.49399L79.4198 3.17383H73.9584L77.8191 12.4959L76.7127 19.3226H81.6562L82.7626 12.4959L89.354 3.17383Z" fill="white"/>
<path d="M95.7763 3.17383L93.1162 19.3226H96.9298L98.8366 7.78778H98.8836L100.131 19.3226H103.286L108.253 7.78778H108.3L106.393 19.3226H111.054L113.714 3.17383H106.935L103.168 11.7426H103.121L102.085 3.17383H95.7763Z" fill="white"/>
<path d="M119.809 3.17383L112.229 19.3226H116.325L117.808 16.1211H122.116L122.493 19.3226H127.53L125.035 3.17383H119.809ZM119.173 12.6371L121.245 7.92902L121.81 12.6371H119.173Z" fill="white"/>
<path d="M131.524 3.17383L128.864 19.3226H133.807L134.419 15.5797L136.562 13.2256L138.374 19.3226H143.789L140.14 9.31791L145.389 3.17383H140.752L135.385 9.69456L136.467 3.17383H131.524Z" fill="white"/>
<path d="M159.166 3.17383H146.995L144.335 19.3226H156.482L157.118 15.462H149.914L150.315 12.8255H156.106L156.741 9.34145H150.927L151.327 6.94032H158.53L159.166 3.17383Z" fill="white"/>
<path d="M161.386 3.17383L158.726 19.3226H163.67L164.658 13.3904H166.565L167.907 19.3226H172.851L171.038 12.5665C171.768 12.284 172.662 11.7426 173.227 11.107C173.981 10.2595 174.404 8.94126 174.404 7.57591C174.404 6.06932 173.816 5.12769 173.251 4.56272C171.933 3.26799 169.861 3.17383 168.778 3.17383H161.386ZM165.741 6.70491H167.554C167.931 6.70491 168.519 6.77553 168.872 6.96386C169.155 7.12864 169.555 7.45821 169.555 8.16442C169.555 8.68232 169.32 9.17667 168.943 9.45915C168.566 9.76518 167.931 9.90642 167.177 9.90642H165.223L165.741 6.70491Z" fill="white"/>
<path d="M178.482 2.62985C178.482 2.15575 178.598 1.71568 178.828 1.30965C179.061 0.903609 179.381 0.584412 179.79 0.352055C180.201 0.117352 180.644 0 181.119 0C181.595 0 182.037 0.117352 182.445 0.352055C182.854 0.584412 183.173 0.903609 183.404 1.30965C183.636 1.71568 183.753 2.15575 183.753 2.62985C183.753 3.09222 183.641 3.52525 183.418 3.92894C183.196 4.33263 182.879 4.65769 182.468 4.90413C182.059 5.14822 181.61 5.27027 181.119 5.27027C180.632 5.27027 180.182 5.1494 179.771 4.90765C179.363 4.66356 179.046 4.33967 178.82 3.93598C178.595 3.53229 178.482 3.09691 178.482 2.62985ZM178.91 2.62985C178.91 3.03354 179.009 3.4079 179.207 3.75291C179.405 4.09558 179.673 4.36431 180.013 4.55912C180.354 4.75392 180.723 4.85132 181.119 4.85132C181.518 4.85132 181.888 4.75275 182.23 4.5556C182.572 4.3561 182.839 4.08619 183.032 3.74587C183.228 3.40555 183.326 3.03354 183.326 2.62985C183.326 2.22851 183.228 1.85885 183.032 1.52088C182.839 1.18056 182.572 0.912997 182.23 0.718193C181.888 0.521042 181.518 0.422467 181.119 0.422467C180.723 0.422467 180.354 0.519869 180.013 0.714673C179.671 0.90713 179.401 1.17469 179.203 1.51736C179.007 1.86003 178.91 2.23086 178.91 2.62985ZM180.573 2.8939V4.08384H180.05V1.09489H181.075C181.454 1.09489 181.747 1.17234 181.955 1.32725C182.166 1.47981 182.271 1.70277 182.271 1.99615C182.271 2.28484 182.112 2.50546 181.795 2.65802C182.097 2.77537 182.25 3.01477 182.252 3.37621V3.59097C182.252 3.79281 182.273 3.93833 182.315 4.02751V4.08384H181.777C181.742 3.99935 181.725 3.84914 181.725 3.63321C181.725 3.41494 181.721 3.28585 181.714 3.24595C181.674 3.02064 181.512 2.90328 181.227 2.8939H180.573ZM180.573 2.44326H181.153C181.331 2.43857 181.475 2.3975 181.584 2.32005C181.693 2.24259 181.747 2.1405 181.747 2.01376C181.747 1.84242 181.699 1.72155 181.602 1.65114C181.506 1.57838 181.334 1.542 181.086 1.542H180.573V2.44326Z" fill="white"/>
</g>
<defs>
<clipPath id="clip0">
<rect width="183.757" height="26" fill="white"/>
</clipPath>
</defs>
</svg>
