<svg width="40" height="39" viewBox="0 0 40 39" fill="none" xmlns="http://www.w3.org/2000/svg">
<path d="M18.3671 38.0432C8.7441 38.0432 0.94314 30.2422 0.94314 20.6192C0.943141 10.9963 8.7441 3.19531 18.3671 3.19531C27.9901 3.19531 35.791 10.9963 35.791 20.6192C35.791 30.2422 27.9901 38.0432 18.3671 38.0432Z" fill="url(#paint0_radial)"/>
<path opacity="0.5" d="M18.3671 38.0432C8.7441 38.0432 0.94314 30.2422 0.94314 20.6192C0.943141 10.9963 8.7441 3.19531 18.3671 3.19531C27.9901 3.19531 35.791 10.9963 35.791 20.6192C35.791 30.2422 27.9901 38.0432 18.3671 38.0432Z" fill="url(#paint1_radial)"/>
<path d="M22.1707 14.2587C22.0726 13.5617 22.7696 13.0281 24.0546 12.8648C25.1545 12.7232 27.6265 12.9955 29.5758 14.9012C29.9352 15.2497 29.4887 15.5328 29.162 15.315C28.0295 14.5854 25.1545 13.8449 23.0636 14.3567C22.2142 14.5745 22.1707 14.2587 22.1707 14.2587Z" fill="url(#paint2_linear)"/>
<path d="M14.5671 14.2587C14.6651 13.5617 13.9681 13.0281 12.6831 12.8648C11.5832 12.7232 9.11119 12.9955 7.16189 14.9012C6.80252 15.2497 7.24901 15.5328 7.57571 15.315C8.70826 14.5854 11.5832 13.8449 13.6741 14.3567C14.5344 14.5745 14.5671 14.2587 14.5671 14.2587Z" fill="url(#paint3_linear)"/>
<path d="M18.3671 38.0432C8.7441 38.0432 0.94314 30.2422 0.94314 20.6192C0.943141 10.9963 8.7441 3.19531 18.3671 3.19531C27.9901 3.19531 35.791 10.9963 35.791 20.6192C35.791 30.2422 27.9901 38.0432 18.3671 38.0432Z" fill="url(#paint4_radial)"/>
<path opacity="0.5" d="M18.3671 38.0432C8.7441 38.0432 0.94314 30.2422 0.94314 20.6192C0.943141 10.9963 8.7441 3.19531 18.3671 3.19531C27.9901 3.19531 35.791 10.9963 35.791 20.6192C35.791 30.2422 27.9901 38.0432 18.3671 38.0432Z" fill="url(#paint5_radial)"/>
<path opacity="0.75" d="M18.3671 38.0432C8.7441 38.0432 0.94314 30.2422 0.94314 20.6192C0.943141 10.9963 8.7441 3.19531 18.3671 3.19531C27.9901 3.19531 35.791 10.9963 35.791 20.6192C35.791 30.2422 27.9901 38.0432 18.3671 38.0432Z" fill="url(#paint6_radial)"/>
<path opacity="0.4" d="M21.8787 32.8374C19.6834 32.8374 17.9038 31.0578 17.9038 28.8625C17.9038 26.6673 19.6834 24.8877 21.8787 24.8877C24.0739 24.8877 25.8535 26.6673 25.8535 28.8625C25.8535 31.0578 24.0739 32.8374 21.8787 32.8374Z" fill="url(#paint7_radial)"/>
<path d="M18.0084 30.8886C17.3949 30.8886 16.8976 30.245 16.8976 29.4511C16.8976 28.6572 17.3949 28.0137 18.0084 28.0137C18.6218 28.0137 19.1191 28.6572 19.1191 29.4511C19.1191 30.245 18.6218 30.8886 18.0084 30.8886Z" fill="url(#paint8_linear)"/>
<path d="M2.5362 23.8887C2.47086 24.4876 2.8629 25.5548 3.48363 26.2518C3.9519 26.7854 4.6053 26.9923 5.25869 26.8725C5.38937 26.8507 5.50916 26.8181 5.63984 26.7636C6.47837 26.4151 7.27333 25.8053 8.12275 25.936L13.5133 26.7201C14.232 26.829 14.929 27.0141 15.6042 27.2863L18.4355 28.7565L18.2831 29.7801L15.1577 30.3791C14.428 30.4553 13.7093 30.4335 12.9906 30.3355L6.20612 29.3445L4.25682 28.7129L1.73035 26.7963C1.15318 26.3062 1.16407 25.2281 1.75212 24.6727L2.5362 23.8887Z" fill="url(#paint9_linear)"/>
<path d="M13.9263 26.7939C14.4926 26.9028 15.0479 27.0662 15.5924 27.2949L18.4238 28.765L18.2714 29.7887L15.1459 30.3876C14.5688 30.4421 13.9807 30.4421 13.4144 30.3876C13.6976 30.3332 14.0243 29.5927 14.155 28.667C14.2856 27.7196 14.1876 26.9246 13.9263 26.7939Z" fill="url(#paint10_linear)"/>
<path d="M2.53621 23.8887C2.47087 24.4876 2.86291 25.5548 3.48364 26.2518C3.9519 26.7854 4.6053 26.9923 5.2587 26.8725C5.38938 26.8507 5.50917 26.8181 5.63985 26.7636C6.47837 26.4151 7.27334 25.8053 8.12276 25.936L13.5133 26.7201C14.232 26.829 14.929 27.0141 15.6042 27.2863L18.4355 28.7565L18.2831 29.7801L15.1577 30.3791C14.428 30.4553 13.7093 30.4335 12.9906 30.3355L6.5546 29.399L4.65975 29.0069L1.74124 26.8072C1.16407 26.3171 1.17496 25.239 1.76302 24.6836L2.53621 23.8887Z" fill="url(#paint11_linear)"/>
<path d="M6.54297 29.3978C2.91661 28.8751 -0.666178 27.9603 0.107009 23.1905C0.662397 19.7275 5.93313 19.4117 6.22716 21.8402C5.84601 21.4263 5.29063 20.5878 4.8877 20.5769C3.00374 20.5116 2.42657 22.6787 2.3939 23.8439C2.32856 26.7624 4.74613 29.1364 6.54297 29.3978Z" fill="url(#paint12_linear)"/>
<path d="M3.15669 22.2975C2.65575 22.4609 2.52507 23.2558 2.53596 23.8766C2.53596 23.8766 2.39439 24.2359 2.4924 24.3884L2.41617 24.2468C2.41617 24.2359 2.40528 23.8439 2.40528 23.833C2.43795 22.6678 3.0369 20.4789 4.89908 20.566C6.59791 20.6531 6.46723 23.1143 5.99896 23.8003L5.7376 24.225L3.72296 23.8548C3.98432 22.5262 3.55962 22.1668 3.15669 22.2975Z" fill="url(#paint13_linear)"/>
<path d="M6.28125 22.7637C6.19413 23.4497 5.91099 24.1031 5.61696 24.0596C5.32293 24.016 5.20315 23.3517 5.2576 22.9597L2.72024 23.3408C2.66579 23.7002 2.77469 24.3101 3.04694 24.3536L5.58429 24.3101C6.17235 24.2992 6.28125 23.0686 6.28125 22.7637Z" fill="url(#paint14_linear)"/>
<path d="M17.9887 29.4074C18.3263 31.9556 20.3845 32.511 19.9707 31.7814C19.4262 30.7904 19.2955 30.137 19.1757 29.2549C19.0559 28.3729 19.0124 27.7086 19.2737 26.6087C19.4806 25.7919 17.6511 26.8591 17.9887 29.4074Z" fill="#643800"/>
<path d="M19.2826 26.6074C19.0103 27.7072 19.0648 28.3715 19.1846 29.2536C19.3044 30.1357 19.435 30.7891 19.9795 31.7801C20.1211 32.0414 19.9686 32.1395 19.6855 32.0523C19.6964 32.0523 19.9686 31.9761 19.7182 31.6385C19.337 31.1376 18.749 30.3971 18.6074 29.3407C18.4658 28.2735 18.8361 27.4132 19.0757 26.8252C19.2172 26.4331 18.9341 26.4331 18.9341 26.4331C19.1737 26.2698 19.3479 26.3242 19.2826 26.6074Z" fill="url(#paint15_linear)"/>
<path opacity="0.75" d="M2.53426 23.8857C2.46892 24.4847 2.86096 25.5519 3.48168 26.2489C3.94995 26.7825 4.60335 26.9894 5.25675 26.8696C5.38743 26.8478 5.50722 26.8151 5.63789 26.7607C6.47642 26.4122 7.27139 25.8024 8.1208 25.9331L13.5113 26.7171C14.2301 26.826 14.927 27.0112 15.6022 27.2834L18.4336 28.7535L18.2811 29.7772L15.1557 30.3762C14.4261 30.4524 13.7074 30.4306 12.9886 30.3326L6.55265 29.3961L4.6578 29.004L1.73929 26.8042C1.16212 26.3142 1.17301 25.2361 1.76107 24.6807L2.53426 23.8857Z" fill="url(#paint16_radial)"/>
<path opacity="0.75" d="M6.54297 29.3968C2.91661 28.8741 -0.666178 27.9593 0.107009 23.1895C0.662397 19.7265 5.93313 19.4107 6.22716 21.8392C5.84601 21.4254 5.29063 20.5868 4.8877 20.5759C3.00374 20.5106 2.42657 22.6777 2.3939 23.8429C2.32856 26.7614 4.74613 29.1355 6.54297 29.3968Z" fill="url(#paint17_radial)"/>
<path d="M26.2424 6.37503C26.079 6.2988 26.0681 6.07012 26.2315 5.983L27.8323 5.14447L37.4155 0.167759C37.6115 0.0697492 38.3956 -0.278729 39.2777 0.461788C40.2142 1.27853 39.9964 1.89926 39.931 2.09528L34.9543 14.9781C34.8454 15.2721 34.4316 15.2612 34.3227 14.9672C33.103 11.5042 28.1699 7.26801 26.2424 6.37503Z" fill="url(#paint18_linear)"/>
<path d="M27.8202 5.14477L29.8021 4.12112C30.5209 3.79442 36.5539 8.35731 36.4015 11.1887L35.2471 14.1726C36.6301 10.6224 28.7894 4.64384 27.8202 5.14477Z" fill="url(#paint19_linear)"/>
<path d="M31.816 3.08612L32.2625 2.84654L33.798 2.05158C34.4405 1.99713 38.0342 4.75229 38.1758 6.61447L37.2175 9.0756C37.4353 6.49468 32.4694 2.73764 31.816 3.08612Z" fill="url(#paint20_linear)"/>
<path d="M37.2939 0.24414C37.8602 0.45105 39.3303 1.57272 39.7441 2.55281L38.7423 5.15551C39.3521 3.56558 36.1722 1.16979 35.4971 1.16979L37.2939 0.24414Z" fill="url(#paint21_linear)"/>
<path opacity="0.75" d="M26.2424 6.37503C26.079 6.2988 26.0681 6.07012 26.2315 5.983L27.8323 5.14447L37.4155 0.167759C37.6115 0.0697492 38.3956 -0.278729 39.2777 0.461788C40.2142 1.27853 39.9964 1.89926 39.931 2.09528L34.9543 14.9781C34.8454 15.2721 34.4316 15.2612 34.3227 14.9672C33.103 11.5042 28.1699 7.26801 26.2424 6.37503Z" fill="url(#paint22_radial)"/>
<path opacity="0.75" d="M26.2424 6.37503C26.079 6.2988 26.0681 6.07012 26.2315 5.983L27.8323 5.14447L37.4155 0.167759C37.6115 0.0697492 38.3956 -0.278729 39.2777 0.461788C40.2142 1.27853 39.9964 1.89926 39.931 2.09528L34.9543 14.9781C34.8454 15.2721 34.4316 15.2612 34.3227 14.9672C33.103 11.5042 28.1699 7.26801 26.2424 6.37503Z" fill="url(#paint23_radial)"/>
<path opacity="0.75" d="M26.2424 6.37503C26.079 6.2988 26.0681 6.07012 26.2315 5.983L27.8323 5.14447L37.4155 0.167759C37.6115 0.0697492 38.3956 -0.278729 39.2777 0.461788C40.2142 1.27853 39.9964 1.89926 39.931 2.09528L34.9543 14.9781C34.8454 15.2721 34.4316 15.2612 34.3227 14.9672C33.103 11.5042 28.1699 7.26801 26.2424 6.37503Z" fill="url(#paint24_radial)"/>
<path d="M23.0844 17.8109C24.2932 17.0595 25.8505 17.1466 26.983 17.996C27.5602 18.4316 28.1265 19.0959 28.4641 20.1305C28.5185 20.3047 28.5621 20.4898 28.573 20.675C28.5947 21.0452 28.3334 21.3828 27.9196 20.9908C24.6961 17.9525 22.4419 21.0779 22.4419 21.0779C22.0063 21.3937 21.5598 20.7403 21.6469 20.1305C21.6687 19.9562 21.6905 19.7711 21.7449 19.6077C21.9954 18.7257 22.529 18.1703 23.0844 17.8109Z" fill="url(#paint25_radial)"/>
<path d="M21.7457 19.6076C21.8655 19.2373 22.0179 18.9324 22.1813 18.6711C22.4426 18.3008 22.7584 18.0286 23.0851 17.8217C24.2939 17.0702 25.8512 17.1574 26.9838 18.0068C27.5609 18.4424 28.1272 19.1067 28.4648 20.1412C28.4975 20.2392 28.5192 20.3481 28.541 20.457C28.541 20.457 28.541 20.457 28.541 20.4679C27.1253 18.2572 25.078 18.1048 25.078 18.1048C25.078 18.1048 23.0525 17.9305 21.6803 19.9125C21.7021 19.8036 21.713 19.7056 21.7457 19.6076Z" fill="url(#paint26_linear)"/>
<path d="M13.6531 17.8109C12.4443 17.0595 10.887 17.1466 9.75449 17.996C9.17732 18.4316 8.61105 19.0959 8.27346 20.1305C8.21901 20.3047 8.17545 20.4898 8.16456 20.675C8.14278 21.0452 8.40414 21.3828 8.81796 20.9908C12.0414 17.9525 14.2956 21.0779 14.2956 21.0779C14.7312 21.3937 15.1777 20.7403 15.0906 20.1305C15.0688 19.9562 15.047 19.7711 14.9926 19.6077C14.753 18.7257 14.2194 18.1703 13.6531 17.8109Z" fill="url(#paint27_radial)"/>
<path d="M15.003 19.6076C14.8832 19.2373 14.7308 18.9324 14.5674 18.6711C14.3061 18.3008 13.9903 18.0286 13.6636 17.8217C12.4548 17.0702 10.8975 17.1574 9.76494 18.0068C9.18777 18.4424 8.62149 19.1067 8.2839 20.1412C8.25123 20.2392 8.22946 20.3481 8.20768 20.457C8.20768 20.457 8.20768 20.457 8.20768 20.4679C9.62337 18.2572 11.6707 18.1048 11.6707 18.1048C11.6707 18.1048 13.6962 17.9305 15.0684 19.9125C15.0466 19.8036 15.0248 19.6947 15.003 19.6076Z" fill="url(#paint28_linear)"/>
<path d="M14.2961 30.4201C14.5684 30.3439 14.8515 29.6361 14.9822 28.7649C15.102 27.9372 15.0257 27.2185 14.8188 27.0225C15.0802 27.0987 15.3415 27.1967 15.592 27.2947L15.6247 27.3056C15.788 27.5452 15.8752 28.1441 15.7771 28.8629C15.6791 29.5598 15.4178 30.137 15.2 30.3657L15.1455 30.3766C14.8624 30.4092 14.5792 30.4201 14.2961 30.4201Z" fill="url(#paint29_linear)"/>
<g opacity="0.25">
<path opacity="0.25" d="M32.219 15.9699C31.6527 17.6034 33.0793 18.0281 32.611 19.0845L31.0211 18.6706C31.4893 17.6143 30.2479 17.2114 30.7488 15.5234L32.219 15.9699Z" fill="url(#paint30_radial)"/>
<path opacity="0.25" d="M5.31014 10.6875C7.48814 11.9181 8.04353 9.38071 9.51367 9.94699L9.05629 12.1359C7.59703 11.5805 6.97631 13.9545 4.79831 12.7239L5.31014 10.6875Z" fill="url(#paint31_radial)"/>
<path opacity="0.25" d="M23.0144 8.16153C22.7679 8.16153 22.568 7.96163 22.568 7.71504C22.568 7.46845 22.7679 7.26855 23.0144 7.26855C23.261 7.26855 23.4609 7.46845 23.4609 7.71504C23.4609 7.96163 23.261 8.16153 23.0144 8.16153Z" fill="url(#paint32_radial)"/>
<path opacity="0.25" d="M11.5594 7.96622C11.3128 7.96622 11.1129 7.76632 11.1129 7.51973C11.1129 7.27314 11.3128 7.07324 11.5594 7.07324C11.806 7.07324 12.0059 7.27314 12.0059 7.51973C12.0059 7.76632 11.806 7.96622 11.5594 7.96622Z" fill="url(#paint33_radial)"/>
<path opacity="0.25" d="M3.50078 18.682C3.25419 18.682 3.05429 18.4821 3.05429 18.2356C3.05429 17.989 3.25419 17.7891 3.50078 17.7891C3.74736 17.7891 3.94727 17.989 3.94727 18.2356C3.94727 18.4821 3.74736 18.682 3.50078 18.682Z" fill="url(#paint34_radial)"/>
<path opacity="0.25" d="M31.4441 25.1303C31.1975 25.1303 30.9976 24.9304 30.9976 24.6838C30.9976 24.4372 31.1975 24.2373 31.4441 24.2373C31.6907 24.2373 31.8906 24.4372 31.8906 24.6838C31.8906 24.9304 31.6907 25.1303 31.4441 25.1303Z" fill="url(#paint35_radial)"/>
<path opacity="0.25" d="M10.2215 34.3324C9.97489 34.3324 9.77499 34.1325 9.77499 33.8859C9.77499 33.6394 9.97489 33.4395 10.2215 33.4395C10.4681 33.4395 10.668 33.6394 10.668 33.8859C10.668 34.1325 10.4681 34.3324 10.2215 34.3324Z" fill="url(#paint36_radial)"/>
<path opacity="0.25" d="M11.5828 23.4633C11.3362 23.4633 11.1363 23.2634 11.1363 23.0168C11.1363 22.7702 11.3362 22.5703 11.5828 22.5703C11.8294 22.5703 12.0293 22.7702 12.0293 23.0168C12.0293 23.2634 11.8294 23.4633 11.5828 23.4633Z" fill="url(#paint37_radial)"/>
<path opacity="0.25" d="M16.0377 8.39147C16.0813 7.68363 16.1466 6.94311 16.2337 6.16992C18.978 7.89054 20.0234 9.98141 20.0234 9.98141L19.2067 11.7456C18.3464 10.1121 16.9198 8.97953 16.0377 8.39147Z" fill="url(#paint38_radial)"/>
</g>
<path d="M32.4631 15.0129C31.8968 16.6464 33.3234 17.0711 32.8551 18.1274L31.2652 17.7136C31.7335 16.6573 30.492 16.2543 30.993 14.5664L32.4631 15.0129Z" fill="url(#paint39_linear)"/>
<path d="M5.31406 9.80763C7.49205 11.0382 8.04743 8.50083 9.51758 9.06711L9.0602 11.256C7.60094 10.7006 6.98022 13.0746 4.80223 11.8441L5.31406 9.80763Z" fill="url(#paint40_linear)"/>
<path d="M4.50859 7.31192C4.262 7.31192 4.0621 7.11202 4.0621 6.86543C4.0621 6.61884 4.262 6.41895 4.50859 6.41895C4.75518 6.41895 4.95508 6.61884 4.95508 6.86543C4.95508 7.11202 4.75518 7.31192 4.50859 7.31192Z" fill="url(#paint41_linear)"/>
<path d="M23.0203 7.50724C22.7737 7.50724 22.5738 7.30734 22.5738 7.06075C22.5738 6.81416 22.7737 6.61426 23.0203 6.61426C23.2669 6.61426 23.4668 6.81416 23.4668 7.06075C23.4668 7.30734 23.2669 7.50724 23.0203 7.50724Z" fill="url(#paint42_linear)"/>
<path d="M11.5633 7.3129C11.3167 7.3129 11.1168 7.113 11.1168 6.86641C11.1168 6.61982 11.3167 6.41992 11.5633 6.41992C11.8099 6.41992 12.0098 6.61982 12.0098 6.86641C12.0098 7.113 11.8099 7.3129 11.5633 7.3129Z" fill="url(#paint43_linear)"/>
<path d="M3.50468 18.0277C3.25809 18.0277 3.05819 17.8278 3.05819 17.5813C3.05819 17.3347 3.25809 17.1348 3.50468 17.1348C3.75127 17.1348 3.95117 17.3347 3.95117 17.5813C3.95117 17.8278 3.75127 18.0277 3.50468 18.0277Z" fill="url(#paint44_linear)"/>
<path d="M31.5457 24.6156C31.2991 24.6156 31.0992 24.4157 31.0992 24.1691C31.0992 23.9226 31.2991 23.7227 31.5457 23.7227C31.7923 23.7227 31.9922 23.9226 31.9922 24.1691C31.9922 24.4157 31.7923 24.6156 31.5457 24.6156Z" fill="url(#paint45_linear)"/>
<path d="M11.6414 22.8529C11.3948 22.8529 11.1949 22.653 11.1949 22.4064C11.1949 22.1599 11.3948 21.96 11.6414 21.96C11.888 21.96 12.0879 22.1599 12.0879 22.4064C12.0879 22.653 11.888 22.8529 11.6414 22.8529Z" fill="url(#paint46_linear)"/>
<path d="M35.0867 30.9984C34.8401 30.9984 34.6402 30.7985 34.6402 30.552C34.6402 30.3054 34.8401 30.1055 35.0867 30.1055C35.3333 30.1055 35.5332 30.3054 35.5332 30.552C35.5332 30.7985 35.3333 30.9984 35.0867 30.9984Z" fill="url(#paint47_linear)"/>
<path d="M15.8092 6.83385C15.8528 6.12601 15.9181 5.38549 16.0052 4.6123C18.7495 6.33292 19.7949 8.42379 19.7949 8.42379L18.9782 10.188C18.1179 8.56536 16.6913 7.42191 15.8092 6.83385Z" fill="url(#paint48_linear)"/>
<path d="M24.4131 27.8296C24.1627 32.6647 28.1157 33.9171 29.3027 34.1893C28.682 34.6903 28.0286 35.1477 27.3317 35.5615C25.1754 34.6576 21.6253 32.3816 22.8232 27.3613C23.4113 27.5138 23.9449 27.6662 24.4131 27.8296Z" fill="url(#paint49_radial)"/>
<path d="M25.5463 27.0013C25.2522 32.6859 30.7734 33.4264 30.7734 33.4264L30.0002 35.245C30.0002 35.245 22.2793 33.6006 23.9563 26.5439C24.5444 26.6855 25.078 26.838 25.5463 27.0013Z" fill="url(#paint50_linear)"/>
<defs>
<radialGradient id="paint0_radial" cx="0" cy="0" r="1" gradientUnits="userSpaceOnUse" gradientTransform="translate(21.7995 13.5556) rotate(-180) scale(21.0197)">
<stop stop-color="#FFE030"/>
<stop offset="1" stop-color="#FFB92E"/>
</radialGradient>
<radialGradient id="paint1_radial" cx="0" cy="0" r="1" gradientUnits="userSpaceOnUse" gradientTransform="translate(21.7995 13.5556) rotate(-180) scale(16.5371)">
<stop stop-color="#FFEA5F"/>
<stop offset="1" stop-color="#FFBC47" stop-opacity="0"/>
</radialGradient>
<linearGradient id="paint2_linear" x1="25.9733" y1="14.9276" x2="25.7291" y2="13.1079" gradientUnits="userSpaceOnUse">
<stop offset="0.00132565" stop-color="#3C2200"/>
<stop offset="1" stop-color="#7A4400"/>
</linearGradient>
<linearGradient id="paint3_linear" x1="10.7704" y1="14.927" x2="11.0146" y2="13.1074" gradientUnits="userSpaceOnUse">
<stop offset="0.00132565" stop-color="#3C2200"/>
<stop offset="1" stop-color="#7A4400"/>
</linearGradient>
<radialGradient id="paint4_radial" cx="0" cy="0" r="1" gradientUnits="userSpaceOnUse" gradientTransform="translate(31.4549 9.34494) rotate(-134.465) scale(13.3692 5.49252)">
<stop stop-color="#EB672A" stop-opacity="0.5"/>
<stop offset="0.3025" stop-color="#E36521" stop-opacity="0.3422"/>
<stop offset="0.7868" stop-color="#CC600A" stop-opacity="0.0897045"/>
<stop offset="0.9589" stop-color="#C25E00" stop-opacity="0"/>
</radialGradient>
<radialGradient id="paint5_radial" cx="0" cy="0" r="1" gradientUnits="userSpaceOnUse" gradientTransform="translate(27.8712 24.9516) rotate(-177.23) scale(7.32893 5.79901)">
<stop stop-color="#FF4C00"/>
<stop offset="0.1995" stop-color="#F94C0E" stop-opacity="0.8005"/>
<stop offset="0.7145" stop-color="#EC4A2E" stop-opacity="0.2855"/>
<stop offset="1" stop-color="#E74A3A" stop-opacity="0"/>
</radialGradient>
<radialGradient id="paint6_radial" cx="0" cy="0" r="1" gradientUnits="userSpaceOnUse" gradientTransform="translate(9.03954 30.3337) rotate(-179.598) scale(11.6528 2.64519)">
<stop stop-color="#7A4400" stop-opacity="0.5"/>
<stop offset="0.5833" stop-color="#894D00" stop-opacity="0.2069"/>
<stop offset="0.995" stop-color="#975500" stop-opacity="0"/>
</radialGradient>
<radialGradient id="paint7_radial" cx="0" cy="0" r="1" gradientUnits="userSpaceOnUse" gradientTransform="translate(20.6168 29.616) rotate(175.446) scale(4.11469 2.90934)">
<stop stop-color="white" stop-opacity="0.75"/>
<stop offset="1" stop-color="white" stop-opacity="0"/>
</radialGradient>
<linearGradient id="paint8_linear" x1="19.1253" y1="29.4473" x2="16.8995" y2="29.4473" gradientUnits="userSpaceOnUse">
<stop offset="0.00132565" stop-color="#3C2200"/>
<stop offset="1" stop-color="#512D00"/>
</linearGradient>
<linearGradient id="paint9_linear" x1="9.86861" y1="27.2223" x2="9.10149" y2="32.4868" gradientUnits="userSpaceOnUse">
<stop stop-color="#FF40BF"/>
<stop offset="0.8932" stop-color="#7000A3"/>
</linearGradient>
<linearGradient id="paint10_linear" x1="16.3361" y1="26.7124" x2="15.8101" y2="30.3218" gradientUnits="userSpaceOnUse">
<stop offset="0.2544" stop-color="#D1F2FF"/>
<stop offset="1" stop-color="#17BBFE"/>
</linearGradient>
<linearGradient id="paint11_linear" x1="8.54157" y1="27.4695" x2="0.251829" y2="23.9116" gradientUnits="userSpaceOnUse">
<stop stop-color="#7000A3" stop-opacity="0"/>
<stop offset="0.2242" stop-color="#530078" stop-opacity="0.2242"/>
<stop offset="0.5925" stop-color="#260038" stop-opacity="0.5925"/>
<stop offset="0.8613" stop-color="#0B000F" stop-opacity="0.8613"/>
<stop offset="1"/>
</linearGradient>
<linearGradient id="paint12_linear" x1="1.40897" y1="33.0057" x2="3.92421" y2="24.1761" gradientUnits="userSpaceOnUse">
<stop/>
<stop offset="0.1488" stop-color="#27002D"/>
<stop offset="0.4631" stop-color="#760086"/>
<stop offset="0.7193" stop-color="#B000C7"/>
<stop offset="0.9045" stop-color="#D300F0"/>
<stop offset="1" stop-color="#E100FF"/>
</linearGradient>
<linearGradient id="paint13_linear" x1="3.9511" y1="19.2631" x2="4.77609" y2="27.3762" gradientUnits="userSpaceOnUse">
<stop/>
<stop offset="0.1488" stop-color="#27002D"/>
<stop offset="0.4631" stop-color="#760086"/>
<stop offset="0.7193" stop-color="#B000C7"/>
<stop offset="0.9045" stop-color="#D300F0"/>
<stop offset="1" stop-color="#E100FF"/>
</linearGradient>
<linearGradient id="paint14_linear" x1="4.13869" y1="25.6708" x2="4.48554" y2="23.2905" gradientUnits="userSpaceOnUse">
<stop stop-color="#7000A3"/>
<stop offset="0.4469" stop-color="#A900D2"/>
<stop offset="0.8117" stop-color="#D200F2"/>
<stop offset="1" stop-color="#E100FF"/>
</linearGradient>
<linearGradient id="paint15_linear" x1="20.5248" y1="29.0734" x2="18.6638" y2="29.322" gradientUnits="userSpaceOnUse">
<stop offset="0.00132565" stop-color="#3C2200"/>
<stop offset="1" stop-color="#512D00"/>
</linearGradient>
<radialGradient id="paint16_radial" cx="0" cy="0" r="1" gradientUnits="userSpaceOnUse" gradientTransform="translate(11.1198 27.523) rotate(-171.713) scale(6.30136 0.702717)">
<stop stop-color="white" stop-opacity="0.5"/>
<stop offset="1" stop-color="white" stop-opacity="0"/>
</radialGradient>
<radialGradient id="paint17_radial" cx="0" cy="0" r="1" gradientUnits="userSpaceOnUse" gradientTransform="translate(1.1856 22.661) rotate(102.282) scale(3.17086 0.709598)">
<stop stop-color="white" stop-opacity="0.5"/>
<stop offset="1" stop-color="white" stop-opacity="0"/>
</radialGradient>
<linearGradient id="paint18_linear" x1="28.865" y1="2.18932" x2="38.9594" y2="9.2713" gradientUnits="userSpaceOnUse">
<stop offset="0.2544" stop-color="#D1F2FF"/>
<stop offset="1" stop-color="#17BBFE"/>
</linearGradient>
<linearGradient id="paint19_linear" x1="27.9889" y1="4.97601" x2="36.8068" y2="12.348" gradientUnits="userSpaceOnUse">
<stop stop-color="#FF40BF"/>
<stop offset="0.7456" stop-color="#7000A3"/>
</linearGradient>
<linearGradient id="paint20_linear" x1="32.2495" y1="2.59413" x2="38.3835" y2="7.72231" gradientUnits="userSpaceOnUse">
<stop stop-color="#FF40BF"/>
<stop offset="0.7456" stop-color="#7000A3"/>
</linearGradient>
<linearGradient id="paint21_linear" x1="35.8613" y1="0.769552" x2="39.7296" y2="4.0035" gradientUnits="userSpaceOnUse">
<stop stop-color="#FF40BF"/>
<stop offset="0.7456" stop-color="#7000A3"/>
</linearGradient>
<radialGradient id="paint22_radial" cx="0" cy="0" r="1" gradientUnits="userSpaceOnUse" gradientTransform="translate(36.5566 7.40002) rotate(114.698) scale(7.23059 1.78075)">
<stop stop-color="#440063" stop-opacity="0.75"/>
<stop offset="1" stop-color="#420061" stop-opacity="0"/>
</radialGradient>
<radialGradient id="paint23_radial" cx="0" cy="0" r="1" gradientUnits="userSpaceOnUse" gradientTransform="translate(33.3894 4.10955) rotate(148.798) scale(7.23047 1.78098)">
<stop stop-color="white" stop-opacity="0.5"/>
<stop offset="1" stop-color="white" stop-opacity="0"/>
</radialGradient>
<radialGradient id="paint24_radial" cx="0" cy="0" r="1" gradientUnits="userSpaceOnUse" gradientTransform="translate(31.0501 13.4875) rotate(149.8) scale(8.92232 9.08457)">
<stop stop-color="#440063" stop-opacity="0.75"/>
<stop offset="1" stop-color="#420061" stop-opacity="0"/>
</radialGradient>
<radialGradient id="paint25_radial" cx="0" cy="0" r="1" gradientUnits="userSpaceOnUse" gradientTransform="translate(25.0697 19.35) rotate(4.52558) scale(2.68812 1.9061)">
<stop offset="0.00132565" stop-color="#7A4400"/>
<stop offset="1" stop-color="#643800"/>
</radialGradient>
<linearGradient id="paint26_linear" x1="24.8089" y1="15.9666" x2="25.0223" y2="18.8924" gradientUnits="userSpaceOnUse">
<stop offset="0.00132565" stop-color="#3C2200"/>
<stop offset="1" stop-color="#512D00"/>
</linearGradient>
<radialGradient id="paint27_radial" cx="0" cy="0" r="1" gradientUnits="userSpaceOnUse" gradientTransform="translate(11.6777 19.3499) rotate(175.474) scale(2.68812 1.9061)">
<stop offset="0.00132565" stop-color="#7A4400"/>
<stop offset="1" stop-color="#643800"/>
</radialGradient>
<linearGradient id="paint28_linear" x1="11.9385" y1="15.9666" x2="11.7251" y2="18.8924" gradientUnits="userSpaceOnUse">
<stop offset="0.00132565" stop-color="#3C2200"/>
<stop offset="1" stop-color="#512D00"/>
</linearGradient>
<linearGradient id="paint29_linear" x1="15.2656" y1="27.9119" x2="14.8325" y2="31.2219" gradientUnits="userSpaceOnUse">
<stop stop-color="#FF40BF"/>
<stop offset="0.8932" stop-color="#7000A3"/>
</linearGradient>
<radialGradient id="paint30_radial" cx="0" cy="0" r="1" gradientUnits="userSpaceOnUse" gradientTransform="translate(26.8725 9.23185) rotate(-180) scale(39.2267)">
<stop stop-color="#7A4400" stop-opacity="0.5"/>
<stop offset="0.5833" stop-color="#894D00" stop-opacity="0.2069"/>
<stop offset="0.995" stop-color="#975500" stop-opacity="0"/>
</radialGradient>
<radialGradient id="paint31_radial" cx="0" cy="0" r="1" gradientUnits="userSpaceOnUse" gradientTransform="translate(29.6545 5.56565) rotate(179.958) scale(53.3718 53.3363)">
<stop stop-color="#7A4400" stop-opacity="0.5"/>
<stop offset="0.5833" stop-color="#894D00" stop-opacity="0.2069"/>
<stop offset="0.995" stop-color="#975500" stop-opacity="0"/>
</radialGradient>
<radialGradient id="paint32_radial" cx="0" cy="0" r="1" gradientUnits="userSpaceOnUse" gradientTransform="translate(25.0187 7.58447) rotate(-180) scale(39.2268)">
<stop stop-color="#7A4400" stop-opacity="0.5"/>
<stop offset="0.5833" stop-color="#894D00" stop-opacity="0.2069"/>
<stop offset="0.995" stop-color="#975500" stop-opacity="0"/>
</radialGradient>
<radialGradient id="paint33_radial" cx="0" cy="0" r="1" gradientUnits="userSpaceOnUse" gradientTransform="translate(25.0199 7.58518) rotate(-180) scale(39.2268)">
<stop stop-color="#7A4400" stop-opacity="0.5"/>
<stop offset="0.5833" stop-color="#894D00" stop-opacity="0.2069"/>
<stop offset="0.995" stop-color="#975500" stop-opacity="0"/>
</radialGradient>
<radialGradient id="paint34_radial" cx="0" cy="0" r="1" gradientUnits="userSpaceOnUse" gradientTransform="translate(25.0199 7.58529) rotate(-180) scale(39.2269 39.2267)">
<stop stop-color="#7A4400" stop-opacity="0.5"/>
<stop offset="0.5833" stop-color="#894D00" stop-opacity="0.2069"/>
<stop offset="0.995" stop-color="#975500" stop-opacity="0"/>
</radialGradient>
<radialGradient id="paint35_radial" cx="0" cy="0" r="1" gradientUnits="userSpaceOnUse" gradientTransform="translate(29.2775 8.18563) rotate(-180) scale(39.2268)">
<stop stop-color="#7A4400" stop-opacity="0.5"/>
<stop offset="0.5833" stop-color="#894D00" stop-opacity="0.2069"/>
<stop offset="0.995" stop-color="#975500" stop-opacity="0"/>
</radialGradient>
<radialGradient id="paint36_radial" cx="0" cy="0" r="1" gradientUnits="userSpaceOnUse" gradientTransform="translate(25.0215 7.58676) rotate(-180) scale(39.227 39.2268)">
<stop stop-color="#7A4400" stop-opacity="0.5"/>
<stop offset="0.5833" stop-color="#894D00" stop-opacity="0.2069"/>
<stop offset="0.995" stop-color="#975500" stop-opacity="0"/>
</radialGradient>
<radialGradient id="paint37_radial" cx="0" cy="0" r="1" gradientUnits="userSpaceOnUse" gradientTransform="translate(23.6058 5.81628) rotate(-180) scale(39.2268 39.2266)">
<stop stop-color="#7A4400" stop-opacity="0.5"/>
<stop offset="0.5833" stop-color="#894D00" stop-opacity="0.2069"/>
<stop offset="0.995" stop-color="#975500" stop-opacity="0"/>
</radialGradient>
<radialGradient id="paint38_radial" cx="0" cy="0" r="1" gradientUnits="userSpaceOnUse" gradientTransform="translate(27.4259 13.3824) rotate(-151.432) scale(54.295 54.25)">
<stop stop-color="#7A4400" stop-opacity="0.5"/>
<stop offset="0.5833" stop-color="#894D00" stop-opacity="0.2069"/>
<stop offset="0.995" stop-color="#975500" stop-opacity="0"/>
</radialGradient>
<linearGradient id="paint39_linear" x1="31.3131" y1="17.359" x2="32.5671" y2="15.2677" gradientUnits="userSpaceOnUse">
<stop stop-color="#FF9214"/>
<stop offset="1" stop-color="#FF4E0D"/>
</linearGradient>
<linearGradient id="paint40_linear" x1="2.14191" y1="11.6181" x2="9.41889" y2="10.2502" gradientUnits="userSpaceOnUse">
<stop stop-color="#80DAFE"/>
<stop offset="1" stop-color="#008EE6"/>
</linearGradient>
<linearGradient id="paint41_linear" x1="7.13156" y1="6.36605" x2="1.96385" y2="7.38397" gradientUnits="userSpaceOnUse">
<stop stop-color="#FFCB4B"/>
<stop offset="1" stop-color="#E81CA2"/>
</linearGradient>
<linearGradient id="paint42_linear" x1="20.4139" y1="7.00426" x2="25.7831" y2="7.13619" gradientUnits="userSpaceOnUse">
<stop stop-color="#FBE07A"/>
<stop offset="1" stop-color="#E81CA2"/>
</linearGradient>
<linearGradient id="paint43_linear" x1="11.7407" y1="4.79561" x2="11.5592" y2="6.9736" gradientUnits="userSpaceOnUse">
<stop stop-color="#80DAFE"/>
<stop offset="1" stop-color="#008EE6"/>
</linearGradient>
<linearGradient id="paint44_linear" x1="2.76053" y1="18.3939" x2="4.56677" y2="16.4338" gradientUnits="userSpaceOnUse">
<stop stop-color="#FFCB4B"/>
<stop offset="1" stop-color="#E81CA2"/>
</linearGradient>
<linearGradient id="paint45_linear" x1="32.4518" y1="24.0161" x2="31.1827" y2="24.2549" gradientUnits="userSpaceOnUse">
<stop offset="0.2544" stop-color="#9F00E8"/>
<stop offset="1" stop-color="#7000A3"/>
</linearGradient>
<linearGradient id="paint46_linear" x1="13.0686" y1="24.2784" x2="10.6366" y2="21.084" gradientUnits="userSpaceOnUse">
<stop stop-color="#80DAFE"/>
<stop offset="1" stop-color="#008EE6"/>
</linearGradient>
<linearGradient id="paint47_linear" x1="35.7124" y1="30.3526" x2="32.8023" y2="31.3945" gradientUnits="userSpaceOnUse">
<stop stop-color="#FF9214"/>
<stop offset="1" stop-color="#FF4E0D"/>
</linearGradient>
<linearGradient id="paint48_linear" x1="9.321" y1="1.72309" x2="20.9104" y2="9.82284" gradientUnits="userSpaceOnUse">
<stop stop-color="#FBE07A"/>
<stop offset="1" stop-color="#E81CA2"/>
</linearGradient>
<radialGradient id="paint49_radial" cx="0" cy="0" r="1" gradientUnits="userSpaceOnUse" gradientTransform="translate(36.6626 26.6075) rotate(-180) scale(18.5261)">
<stop stop-color="#7A4400" stop-opacity="0.5"/>
<stop offset="0.5833" stop-color="#894D00" stop-opacity="0.2069"/>
<stop offset="0.995" stop-color="#975500" stop-opacity="0"/>
</radialGradient>
<linearGradient id="paint50_linear" x1="25.3109" y1="23.5335" x2="30.0364" y2="42.6696" gradientUnits="userSpaceOnUse">
<stop stop-color="#F78174"/>
<stop offset="0.3893" stop-color="#8800C7"/>
<stop offset="1" stop-color="#3640FF"/>
</linearGradient>
</defs>
</svg>
