<svg width="8" height="20" viewBox="0 0 8 20" fill="none" xmlns="http://www.w3.org/2000/svg">
<path d="M0 4.01709C0 2.96296 0.394558 2.03704 1.18367 1.23932C1.97279 0.413105 2.96599 0 4.16327 0C5.22449 0 6.12245 0.413105 6.85714 1.23932C7.61905 2.03704 8 2.96296 8 4.01709C8 5.21368 7.63265 6.23932 6.89796 7.09402C6.19048 7.94872 5.27891 8.37607 4.16327 8.37607C2.93878 8.37607 1.93197 7.96296 1.14286 7.13675C0.380953 6.28205 0 5.24217 0 4.01709ZM0 15.641C0 14.5869 0.394558 13.661 1.18367 12.8632C1.97279 12.037 2.96599 11.6239 4.16327 11.6239C5.22449 11.6239 6.12245 12.037 6.85714 12.8632C7.61905 13.661 8 14.5869 8 15.641C8 16.8376 7.63265 17.8632 6.89796 18.7179C6.19048 19.5727 5.27891 20 4.16327 20C2.93878 20 1.93197 19.5869 1.14286 18.7607C0.380953 17.906 0 16.8661 0 15.641Z" fill="white"/>
</svg>
